<svg width="41" height="45" fill="none" xmlns="http://www.w3.org/2000/svg"><g clip-path="url(#clip0_46_165)"><path d="M40.628 15.852c-.836-3.695-3.159-6.578-5.714-8.623-3.624-2.882-7.805-4.44-11.987-5.44C19.211.908 15.262-.743 11.661.373c-1.672.511-2.927 2.301-4.112 4.09-1.765 1.489-3.321 3.395-4.53 5.603-3.205 5.88-3.925 13.83-1.834 20.454.905 2.86 2.3 5.486 4.134 7.531 1.65 1.837 3.601 3.138 5.622 4.207 5.877 3.115 12.846 4.068 18.49.326 3.253-2.162 5.831-5.695 7.852-9.6 1.835-3.58 3.276-7.577 3.624-11.831.14-1.767.093-3.58-.302-5.276l.023-.024z" fill="#000"/><path d="M29.153 22.337a1510.47 1510.47 0 00-6.295-6.043 213.664 213.664 0 00-6.412-5.834c-.255.07-.534.209-.836.441a6.63 6.63 0 00-.883.767c-.278.303-.557.605-.79.953-.232.326 2.23 1.837 3.346 2.952a220.623 220.623 0 013.298 3.255c1.069 1.069 2.114 2.091 3.113 3.09.279.28.558.512.813.791-1.37 1.441-2.764 2.86-4.112 4.3a213.777 213.777 0 00-5.83 6.416c.07.255.209.534.441.836.21.302.465.581.767.884.302.279.604.557.952.79.325.232 1.835-2.232 2.95-3.347 1.092-1.14 2.184-2.232 3.252-3.3 1.07-1.07 2.091-2.116 3.09-3.116a37.953 37.953 0 002.555-2.858v-.047c.21-.279.418-.558.604-.837l-.023-.093z" fill="#B8FF1F"/></g><defs><clipPath id="clip0_46_165"><path fill="#fff" d="M0 0h41v45H0z"/></clipPath></defs></svg>