<svg width="41" height="45" fill="none" xmlns="http://www.w3.org/2000/svg"><path d="M.372 29.148c.836 3.695 3.159 6.578 5.714 8.623 3.624 2.882 7.805 4.44 11.987 5.44 3.716.882 7.665 2.533 11.266 1.417 1.673-.511 2.927-2.301 4.112-4.09 1.765-1.488 3.321-3.394 4.53-5.603 3.205-5.88 3.925-13.83 1.834-20.454-.905-2.86-2.3-5.486-4.134-7.531-1.65-1.836-3.6-3.138-5.622-4.207-5.877-3.115-12.846-4.068-18.49-.326-3.253 2.162-5.831 5.695-7.852 9.6C1.882 15.597.442 19.594.093 23.848c-.14 1.767-.093 3.58.302 5.276l-.023.024z" fill="#000"/></svg>