<svg width="41" height="45" fill="none" xmlns="http://www.w3.org/2000/svg"><g clip-path="url(#clip0_46_168)"><path d="M.372 29.148c.836 3.695 3.159 6.578 5.714 8.623 3.624 2.882 7.805 4.44 11.987 5.44 3.716.882 7.665 2.533 11.266 1.417 1.673-.511 2.927-2.301 4.112-4.09 1.765-1.488 3.321-3.394 4.53-5.603 3.205-5.88 3.925-13.83 1.834-20.454-.905-2.86-2.3-5.486-4.134-7.531-1.65-1.836-3.6-3.138-5.622-4.207-5.877-3.115-12.846-4.068-18.49-.326-3.253 2.162-5.831 5.695-7.852 9.6C1.882 15.597.442 19.594.093 23.848c-.14 1.767-.093 3.58.302 5.276l-.023.024z" fill="#000"/><path d="M11.847 22.663a1510.47 1510.47 0 006.295 6.043 213.664 213.664 0 006.412 5.834c.255-.07.534-.209.836-.441.302-.21.58-.465.883-.767.278-.303.557-.605.79-.953.232-.326-2.23-1.837-3.346-2.952a220.623 220.623 0 01-3.298-3.255c-1.069-1.069-2.114-2.091-3.113-3.09-.279-.28-.558-.512-.813-.791 1.37-1.441 2.764-2.86 4.112-4.3a213.777 213.777 0 005.83-6.416 2.445 2.445 0 00-.441-.836 6.502 6.502 0 00-.767-.884c-.302-.279-.604-.557-.952-.79-.325-.232-1.835 2.232-2.95 3.347-1.092 1.14-2.184 2.232-3.252 3.3-1.07 1.07-2.091 2.116-3.09 3.116a37.953 37.953 0 00-2.555 2.858v.047c-.21.279-.418.558-.604.837l.023.093z" fill="#B8FF1F"/></g><defs><clipPath id="clip0_46_168"><path fill="#fff" transform="rotate(-180 20.5 22.5)" d="M0 0h41v45H0z"/></clipPath></defs></svg>