<svg width="45" height="45" fill="none" xmlns="http://www.w3.org/2000/svg"><path fill-rule="evenodd" clip-rule="evenodd" d="M0 22.5C0 10.074 10.074 0 22.5 0S45 10.074 45 22.5 34.926 45 22.5 45 0 34.926 0 22.5zm22.5-11.25c6.188 0 11.25 5.063 11.25 11.25a11.35 11.35 0 01-9.703 11.25v-8.016h2.672l.562-3.234h-3.093v-2.11c0-.843.421-1.687 1.828-1.687h1.406v-2.812s-1.266-.282-2.531-.282c-2.532 0-4.22 1.547-4.22 4.36V22.5H17.86v3.234h2.813v7.875c-5.344-.843-9.422-5.484-9.422-11.109 0-6.188 5.063-11.25 11.25-11.25z" fill="#000"/></svg>