<svg width="45" height="45" fill="none" xmlns="http://www.w3.org/2000/svg"><path d="M22.5 26.438c-2.11 0-3.938-1.688-3.938-3.938 0-2.11 1.688-3.938 3.938-3.938 2.11 0 3.938 1.688 3.938 3.938 0 2.11-1.829 3.938-3.938 3.938z" fill="#000"/><path fill-rule="evenodd" clip-rule="evenodd" d="M27.281 12.938H17.72c-1.125.14-1.688.28-2.11.421-.562.141-.984.422-1.406.844-.334.334-.491.668-.682 1.071-.05.107-.103.218-.162.335a7.98 7.98 0 01-.073.208c-.147.402-.348.95-.348 1.902v9.562c.14 1.125.28 1.688.421 2.11.141.562.422.984.844 1.406.334.334.668.491 1.071.682.107.05.218.103.335.162.066.021.134.047.208.073.402.148.95.349 1.902.349h9.562c1.125-.141 1.688-.282 2.11-.422.562-.141.984-.422 1.406-.844.334-.334.491-.668.682-1.071.05-.107.103-.218.162-.335a7.98 7.98 0 01.073-.208c.148-.402.349-.95.349-1.902V17.72c-.141-1.125-.282-1.688-.422-2.11-.141-.562-.422-.984-.844-1.406-.334-.334-.668-.491-1.071-.682-.107-.05-.218-.103-.335-.162a7.98 7.98 0 01-.208-.073c-.402-.147-.95-.348-1.902-.348zM22.5 16.453a6.002 6.002 0 00-6.047 6.047 6.002 6.002 0 006.047 6.047 6.002 6.002 0 006.047-6.047 6.002 6.002 0 00-6.047-6.047zm7.594-.14a1.406 1.406 0 11-2.813 0 1.406 1.406 0 012.813 0z" fill="#000"/><path fill-rule="evenodd" clip-rule="evenodd" d="M0 22.5C0 10.074 10.074 0 22.5 0S45 10.074 45 22.5 34.926 45 22.5 45 0 34.926 0 22.5zm17.719-11.672h9.562c1.266.14 2.11.281 2.813.563.843.421 1.406.703 2.11 1.406a6.141 6.141 0 011.405 2.11c.282.702.563 1.546.563 2.812v9.562c-.14 1.266-.281 2.11-.563 2.813-.422.843-.703 1.406-1.406 2.11a6.141 6.141 0 01-2.11 1.405c-.702.282-1.546.563-2.812.563H17.72c-1.266-.14-2.11-.281-2.813-.563-.844-.422-1.406-.703-2.11-1.406a6.14 6.14 0 01-1.405-2.11c-.282-.702-.563-1.546-.563-2.812V17.72c.14-1.266.281-2.11.563-2.813.421-.844.703-1.406 1.406-2.11a6.14 6.14 0 012.11-1.405c.702-.282 1.546-.563 2.812-.563z" fill="#000"/></svg>