<svg width="45" height="45" fill="none" xmlns="http://www.w3.org/2000/svg"><g clip-path="url(#clip0_59_197)" fill="#000"><path d="M22.392 10.967c-10.638 0-11.894 4.136-11.894 10.86 0 5.761 1.034 7.018 2.66 8.716.517.518 2.363 1.404 2.806 1.404v5.098c0 .295.296.517.592.221l3.916-4.654 1.92.074c10.638 0 11.894-4.137 11.894-10.86s-1.256-10.86-11.894-10.86zm6.28 17.73c-.74.886-1.43 1.255-2.07 1.107-2.61-.591-5.121-2.069-7.535-4.432-2.413-2.364-3.916-4.925-4.506-7.683 0-.985.615-1.822 1.847-2.512.64-.443 1.182-.32 1.625.37l1.847 2.585c.296.592.123 1.133-.517 1.626-2.881 1.108 3.768 8.274 5.393 5.171.493-.64 1.084-.739 1.773-.295l2.66 1.994c.393.493.221 1.182-.518 2.068zM22.84 16.802h-.005a.37.37 0 010-.739h.005a5.103 5.103 0 015.092 5.336.37.37 0 01-.369.353h-.017a.37.37 0 01-.351-.387 4.364 4.364 0 00-4.354-4.564zm.525 1.994a.37.37 0 01-.026-.739 2.588 2.588 0 012.672 2.672.37.37 0 01-.369.357h-.012a.369.369 0 01-.357-.382 1.85 1.85 0 00-1.909-1.909zm6.487 3.426a.37.37 0 01-.368.343l-.027-.001a.37.37 0 01-.342-.396 6.756 6.756 0 00-2.086-5.41 6.753 6.753 0 00-4.85-1.877.37.37 0 01-.018-.739 7.483 7.483 0 015.378 2.083 7.485 7.485 0 012.33 5.276c.007.239 0 .481-.017.72z"/><path d="M22.5 0C10.074 0 0 10.074 0 22.5S10.074 45 22.5 45 45 34.926 45 22.5 34.927 0 22.5 0zm-.109 34.902c-.739 0-1.33 0-2.364-.148l-2.807 3.177c-.518.591-2.07.812-2.07-.96v-3.103c-.443 0-1.477-.444-2.88-1.33-1.404-.96-3.989-3.25-3.989-10.711 0-9.309 4.063-13.077 14.11-13.077 10.048 0 14.11 3.768 14.11 13.076 0 9.309-4.062 13.076-14.11 13.076z"/></g><defs><clipPath id="clip0_59_197"><path fill="#fff" d="M0 0h45v45H0z"/></clipPath></defs></svg>