<svg width="303" height="407" fill="none" xmlns="http://www.w3.org/2000/svg"><g clip-path="url(#clip0_176_144)"><path d="M77.15 221.151c13.077-3.549 25.407-6.911 36.989-10.46 11.582-3.549 22.603-6.911 33.064-10.086 10.461-3.362 20.923-6.538 31.01-9.9 10.275-3.362 20.736-6.35 31.757-9.526 1.682-5.23 4.11-12.888 7.286-22.974 2.989-10.086 6.538-21.106 10.461-33.06a2217.675 2217.675 0 0011.769-36.983c3.923-12.702 7.472-24.843 10.834-36.236 3.363-11.58 5.978-21.667 8.22-30.446 2.242-8.779 3.176-14.756 3.176-18.305 4.296 1.308 8.966 2.989 13.823 4.857 4.857 1.867 9.341 4.296 13.45 7.284 4.11 2.802 7.473 5.977 10.088 9.152 2.615 3.176 3.923 6.725 3.923 10.087 0 7.845-1.681 18.678-4.857 32.313a876.56 876.56 0 01-11.208 43.147c-4.11 15.13-8.407 29.512-12.703 43.147-4.297 13.822-7.659 24.469-9.901 32.313 2.242 2.242 4.857 4.67 7.846 7.472 2.989 2.801 4.67 7.471 4.67 14.008-2.242 2.242-4.857 2.989-8.219 2.242-3.363-.747-5.978 0-8.22 2.241-13.45 31.006-24.285 62.012-32.131 93.205-7.846 31.193-16.065 63.88-24.845 97.874 0-2.241-.187-2.615-.747-1.307-.374 1.307-1.681 2.988-3.923 5.23-6.538 0-13.824-2.802-21.67-8.219-7.846-5.417-12.889-11.58-15.131-18.678 2.242-26.15 6.912-52.113 14.011-77.889 7.285-25.776 14.01-51.739 20.548-77.888-10.087 2.615-19.801 5.603-29.515 8.779-9.714 3.175-20.175 6.911-31.757 10.833-11.582 3.923-24.472 8.219-38.856 13.075s-31.57 10.086-51.745 15.69c-2.616.373-6.352-.374-11.396-2.615a88.945 88.945 0 01-15.13-8.592c-5.045-3.549-9.341-7.098-13.077-10.834-3.736-3.735-5.605-6.724-5.605-8.779a4006.433 4006.433 0 0175.844-122.342c26.153-40.532 52.866-80.504 79.766-119.728 2.989.934 7.472 2.241 13.077 3.922 5.604 1.681 11.021 3.55 16.065 5.604 5.044 1.868 9.34 4.296 12.703 6.91 3.362 2.616 4.67 5.417 3.362 8.593-2.989 6.537-8.032 14.756-14.757 24.842-6.725 10.086-14.384 20.92-22.978 32.687-8.593 11.767-17.559 24.095-27.086 36.983-9.528 12.888-18.494 25.402-26.527 37.543-8.033 12.141-15.131 23.908-20.922 34.929-5.791 11.02-9.714 20.919-11.395 29.138l.56.747z" fill="#BAFF1F"/></g><defs><clipPath id="clip0_176_144"><path fill="#fff" d="M0 0h303v407H0z"/></clipPath></defs></svg>