<svg width="254" height="388" fill="none" xmlns="http://www.w3.org/2000/svg"><g clip-path="url(#clip0_18_317)"><path d="M235.869 300.356c3.466 12.593 6.509 23.139 9.129 31.535 2.621 8.396 3.043 18.072 1.31 29.027-17.37 2.509-35.923 5.273-55.702 8.191-19.779 2.918-39.643 5.888-59.633 8.806-19.99 2.918-39.558 5.375-58.83 7.269C52.871 387.078 34.909 388 18.258 388c-5.198-2.099-9.552-7.014-13.017-14.846-3.466-7.782-5.199-16.075-5.199-24.881 13.525-8.395 28.528-17.969 45.053-28.72 16.482-10.75 33.218-22.576 50.25-35.631 16.99-13.003 33.388-27.235 49.194-42.593 15.807-15.358 29.965-31.843 42.432-49.505 12.468-17.662 22.484-36.45 29.965-56.416 7.438-19.965 11.199-41.108 11.199-63.378-3.127-11.775-8.241-19.147-15.383-22.065-7.143-2.918-15.173-3.48-24.217-1.587-9.002 1.895-18.638 5.376-28.908 10.393s-20.244 9.675-29.922 13.873c-9.72 4.198-18.68 7.168-26.837 8.806-8.157 1.69-14.665 0-19.525-5.017-2.41-2.509-4.1-4.198-4.945-5.017a36.404 36.404 0 01-2.62-2.867c-.888-1.024-2.156-2.918-3.889-5.683-1.732-2.713-4.86-7.27-9.382-13.566-2.07-3.379-1.395-6.809 2.113-10.392 3.466-3.584 8.58-7.168 15.342-10.751 6.762-3.584 14.58-7.014 23.413-10.393 8.875-3.378 17.455-6.194 25.781-8.498 8.325-2.304 15.806-4.198 22.399-5.682 6.593-1.485 11.115-2.202 13.524-2.202 12.13-2.508 23.245-1.587 33.303 2.816 10.059 4.403 18.85 11.058 26.288 19.863 7.438 8.806 13.693 19.454 18.765 31.843 5.029 12.389 8.41 25.136 10.143 38.14 1.732 26.928-1.564 51.501-9.89 73.821-8.326 22.27-19.272 42.901-32.796 61.792-13.524 18.941-28.358 36.194-44.503 51.706-16.144 15.563-31.148 30.255-45.052 44.129 7.269 0 15.975-.87 26.034-2.509 10.059-1.638 20.371-3.788 30.979-6.296 10.608-2.509 21.004-5.273 31.232-8.191 10.228-2.919 19.018-5.683 26.287-8.191v.051z" fill="#B8FF1F"/></g><defs><clipPath id="clip0_18_317"><path fill="#fff" d="M0 0h254v388H0z"/></clipPath></defs></svg>