<svg width="265" height="405" fill="none" xmlns="http://www.w3.org/2000/svg"><g clip-path="url(#clip0_18_368)"><path d="M6.525 284.181c6.58 2.649 12.08 6.055 16.448 10.217 4.368 4.163 7.658 9.785 9.869 16.812-5.716 10.109-7.82 18.812-6.256 26.056 1.51 7.244 5.07 13.082 10.516 17.515 5.5 4.378 12.404 7.351 20.762 8.919 8.36 1.568 16.448 1.892 24.376.973 8.358-1.297 17.203-4.379 26.694-9.244 9.437-4.865 18.659-10.757 27.665-17.839 9.006-7.027 17.796-14.758 26.316-23.082 8.575-8.325 16.017-16.704 22.38-25.083 6.364-8.379 11.433-16.38 15.154-24.11 3.721-7.676 5.608-14.163 5.608-19.461-5.285-17.136-11.756-28.704-19.414-34.651-7.711-5.946-15.908-9.352-24.698-10.216-8.791-.865-17.796-.649-27.018.648-9.222 1.298-17.796.649-25.67-2-4.853-2.649-8.898-7.784-12.187-15.514-3.29-7.677-3.613-15.947-.97-24.759 3.936-4.379 9.652-8.271 17.094-11.568 7.442-3.298 15.585-6.703 24.375-10.217a2319.248 2319.248 0 0026.694-10.866c9.006-3.73 16.772-8.162 23.351-13.19 6.579-5.027 11.433-10.973 14.507-17.839 3.074-6.811 3.289-14.866.647-24.11 0-4.865-3.182-8.27-9.545-10.216-6.364-2-14.291-2.974-23.729-2.974-9.437 0-19.737.865-30.954 2.65-11.217 1.783-21.517 3.73-30.954 5.946-9.438 2.216-17.473 4.378-24.052 6.595-6.58 2.216-10.085 3.946-10.516 5.297-2.211.865-4.853.649-7.927-.648-3.074-1.298-5.932-3.406-8.575-6.271a49.12 49.12 0 01-6.902-9.568c-1.996-3.514-2.966-7.028-2.966-10.541 0-7.46 3.397-14.056 10.192-19.786 6.795-5.73 15.585-10.649 26.316-14.865 10.732-4.163 22.596-7.46 35.539-9.893a509.974 509.974 0 0137.533-5.622C168.416.379 179.417-.162 189.286 0c9.869.216 17.203.973 22.056 2.325 18.443 8.379 31.494 20.596 39.206 36.65 7.657 16.056 10.515 32.598 8.574 49.518-1.995 16.92-8.574 32.921-19.737 47.841-11.217 14.974-26.425 25.731-45.785 32.326-4.853-2.216-6.363-2.973-4.584-2.324 1.726.648 5.177 2.648 10.193 5.946 5.069 3.297 11.324 7.73 18.766 13.19 7.442 5.514 14.723 12.217 21.733 20.109 7.011 7.947 12.943 16.812 17.796 26.759 4.854 9.893 7.334 20.596 7.55 32.002.216 11.46-2.75 23.677-8.898 36.651-6.148 12.974-16.664 26.759-31.602 41.246-19.306 19.353-40.499 34.651-63.526 45.895s-47.726 16.812-74.097 16.812c-16.232 0-30.63-4.379-43.142-13.19-12.51-8.811-22.38-19.569-29.606-32.326C6.957 346.672 2.427 333.482.701 319.805c-1.78-13.622.216-25.515 5.932-35.624h-.108z" fill="#B8FF1F"/></g><defs><clipPath id="clip0_18_368"><path fill="#fff" d="M0 0h265v405H0z"/></clipPath></defs></svg>