<svg width="293" height="402" fill="none" xmlns="http://www.w3.org/2000/svg"><g clip-path="url(#clip0_176_146)"><path d="M293 43.928c-30.978 3.507-63.984 5.538-98.835 6.091-34.85.554-68.778 2.4-101.415 5.538-7.376 9.044-13.092 19.749-17.518 32.3-4.24 12.551-8.666 25.655-12.907 39.498 11.985-5.537 25.446-10.52 40.013-14.95 14.567-4.245 29.503-7.198 44.623-8.49 15.12-1.292 29.872-.185 44.623 3.322 14.567 3.507 28.028 10.151 40.013 20.118 6.454 6.46 12.539 13.843 18.439 22.334 5.901 8.49 11.064 17.165 15.489 26.578 4.61 9.229 7.929 19.011 10.326 29.163 2.398 10.151 3.319 19.934 2.951 29.347-.369 12.551-3.873 26.209-10.326 40.975-6.454 14.95-14.936 29.347-25.447 43.559-10.51 14.212-22.864 27.502-36.878 39.684-14.014 12.366-28.765 22.148-44.254 29.716-15.489 7.567-31.531 11.812-47.758 12.92-16.41 1.107-32.084-2.215-47.204-9.967-9.405-2.584-18.071-7.568-25.447-14.95-7.56-7.383-14.198-15.689-20.098-24.918a127.808 127.808 0 01-13.83-29.162c-3.503-10.152-5.532-19.011-6.454-26.763 2.213 0 5.9 1.845 11.064 5.537 5.163 3.691 8.85 6.644 11.063 8.675 11.248 16.796 24.34 28.424 39.46 34.884 15.12 6.46 30.61 8.675 46.836 6.829 16.227-1.846 32.269-7.198 48.127-15.873 15.857-8.675 30.424-19.749 43.516-33.223 13.092-13.659 23.971-28.794 32.638-45.59 8.666-16.796 13.829-34.33 15.489-52.419 2.213-17.719-1.107-31.192-9.773-40.421s-20.283-15.32-34.85-18.457c-14.567-2.953-31.163-3.507-49.417-1.292-18.255 2.215-36.141 5.906-53.29 11.074-17.148 5.168-32.637 11.444-46.098 18.826-13.645 7.383-23.234 14.582-28.765 21.965-9.036-2.953-16.227-8.86-21.39-17.535s-6.638-17.165-4.61-25.84c0-11.628 1.844-23.994 5.9-36.915a257.978 257.978 0 0114.937-38.39c6.085-12.736 12.723-25.103 20.098-37.1C49.417 28.61 56.24 17.534 62.694 7.568a4463.909 4463.909 0 00103.998-4.8c31.9-1.845 64.169-2.953 96.806-2.953 7.745 2.215 14.567 7.752 20.652 16.797 6.085 9.044 9.035 18.088 9.035 27.132l-.184.184z" fill="#BAFF1F"/></g><defs><clipPath id="clip0_176_146"><path fill="#fff" d="M0 0h293v402H0z"/></clipPath></defs></svg>