<svg width="279" height="436" fill="none" xmlns="http://www.w3.org/2000/svg"><path d="M279 19.83c-14.346 27.831-27.56 56.707-40.019 86.626-12.459 29.918-24.162 59.837-35.866 90.452-11.704 30.615-23.03 61.229-34.733 91.844-11.704 30.615-23.785 60.882-36.622 90.8h16.235c2.642 3.827 5.663 6.958 9.06 10.089 3.398 3.131 7.174 5.567 10.572 8.35 3.397 2.783 6.04 5.914 8.305 9.393 2.266 3.479 3.398 7.306 3.398 12.176-16.611 2.436-35.111 4.523-55.498 6.262-20.387 1.74-40.396 4.871-60.028 8.35-9.061 1.391-17.745 2.087-25.295 1.739-7.55 0-14.347-1.739-20.387-4.522-6.04-2.783-10.571-7.306-13.592-13.22C1.51 412.255 0 404.253 0 394.512c5.663 0 13.969-.696 25.295-2.435 11.326-1.74 22.652-2.436 33.978-2.436 21.52-54.271 42.285-108.543 62.294-162.118 20.009-53.576 43.794-106.456 70.977-158.64-13.214 5.218-26.428 11.828-38.886 19.83-12.459 8.002-22.653 14.612-30.581 19.83-13.214 2.435-23.407.348-30.203-5.566-6.795-5.915-12.459-13.916-17.744-23.31 11.326-2.434 23.785-8 36.999-16.698a4984.091 4984.091 0 0040.774-27.136c13.968-9.393 27.937-17.395 41.906-24.7C208.778 3.827 222.747 0 235.961 0c7.551 0 15.101 2.087 22.652 5.914 7.551 4.175 13.969 8.698 19.632 13.916H279z" fill="#B8FF1F"/></svg>