<svg width="411" height="229" fill="none" xmlns="http://www.w3.org/2000/svg"><g clip-path="url(#clip0_109_150)"><path d="M96.011 52H6.685c-.066-.018-.129-.037-.195-.051-2.377-.478-4.212-1.734-5.461-3.83-.557-.933-.839-1.962-1.033-3.02V6.986c.128-.669.26-1.333.51-1.972A7.903 7.903 0 017.83.003c29.003 0 58.005 0 87.008-.003a7.891 7.891 0 017.879 7.87c0 .925.011 1.854-.004 2.78-.007.327.121.43.432.422a39.247 39.247 0 011.971 0c1.095.03 1.883.786 1.883 1.807.003 8.762.003 17.528 0 26.29 0 1.017-.78 1.788-1.806 1.796-.681.007-1.359 0-2.04.003-.421 0-.425.011-.436.434-.029 1.193.069 2.387-.059 3.58-.267 2.53-1.513 4.455-3.608 5.85-.926.62-1.967.937-3.04 1.168zM51.383 7.279H8.193c-.78 0-.944.161-.944.929v35.636c0 .11-.004.224.003.334.019.286.172.474.44.573.194.073.395.059.593.059H94.4c.164 0 .333-.004.498-.03.311-.051.498-.239.534-.554.019-.143.022-.29.022-.434V8.288c0-.132.004-.268-.014-.4-.052-.407-.25-.587-.66-.602-.142-.007-.289-.004-.436-.004-14.321-.003-28.643-.003-42.961-.003z" fill="#1D1D1B"/><path d="M12.611 26.044v-12.86c0-.525 0-.53.535-.53h10.897c.505 0 .51 0 .51.496v25.791c0 .47-.02.485-.495.485H13.09c-.48 0-.484-.004-.484-.488.004-4.297.004-8.597.004-12.894zm16.38-.04V13.18c0-.529 0-.529.535-.529h10.893c.513 0 .517 0 .517.522v25.713c0 .536 0 .536-.542.536h-10.86c-.543 0-.543 0-.543-.562V26.004zm28.329.003v12.857c0 .558 0 .558-.549.558h-10.86c-.531 0-.535 0-.535-.54V13.166c0-.517 0-.517.513-.517h10.93c.502 0 .502 0 .502.495v12.864zm16.38.037v12.824c0 .554 0 .558-.553.558h-10.86c-.531 0-.531 0-.531-.544v-25.68c0-.547 0-.547.55-.547h10.893c.498 0 .498 0 .498.5.004 4.296.004 8.592.004 12.889zm16.385-.037v12.857c0 .558 0 .558-.55.558h-10.86c-.534 0-.534 0-.534-.54V13.198c0-.55 0-.55.55-.55h10.892c.499 0 .502 0 .502.495v12.864z" fill="#B9FF1F"/></g><g clip-path="url(#clip1_109_150)"><path d="M400.011 52h-89.326c-.066-.018-.129-.037-.195-.051-2.377-.478-4.212-1.734-5.461-3.83-.557-.933-.839-1.962-1.033-3.02V6.986c.128-.669.26-1.333.509-1.972a7.904 7.904 0 017.326-5.01c29.003 0 58.005 0 87.008-.003a7.891 7.891 0 017.879 7.87c0 .925.011 1.854-.004 2.78-.007.327.121.43.432.422a39.247 39.247 0 011.971 0c1.095.03 1.883.786 1.883 1.807.003 8.762.003 17.528 0 26.29 0 1.017-.78 1.788-1.806 1.796-.681.007-1.359 0-2.04.003-.421 0-.425.011-.436.434-.029 1.193.069 2.387-.059 3.58-.267 2.53-1.513 4.455-3.608 5.85-.926.62-1.967.937-3.04 1.168zM355.383 7.279h-43.189c-.781 0-.945.161-.945.929v35.636c0 .11-.004.224.003.334.019.286.172.474.44.573.194.073.395.059.593.059h86.114c.165 0 .334-.004.499-.03.311-.051.498-.239.534-.554a3.31 3.31 0 00.022-.434V8.288c0-.132.004-.268-.014-.4-.052-.407-.249-.587-.66-.602-.142-.007-.289-.004-.435-.004-14.322-.003-28.644-.003-42.962-.003z" fill="#1D1D1B"/><path d="M316.611 26.044v-12.86c0-.525 0-.53.535-.53h10.897c.505 0 .509 0 .509.496v25.791c0 .47-.018.485-.494.485h-10.967c-.48 0-.484-.004-.484-.488.004-4.297.004-8.597.004-12.894zm16.38-.04V13.18c0-.529 0-.529.535-.529h10.893c.513 0 .517 0 .517.522v25.713c0 .536 0 .536-.542.536h-10.861c-.542 0-.542 0-.542-.562V26.004zm28.33.003v12.857c0 .558 0 .558-.55.558h-10.86c-.531 0-.535 0-.535-.54V13.166c0-.517 0-.517.513-.517h10.93c.502 0 .502 0 .502.495v12.864zm16.38.037v12.824c0 .554 0 .558-.554.558h-10.86c-.531 0-.531 0-.531-.544v-25.68c0-.547 0-.547.549-.547h10.894c.498 0 .498 0 .498.5.004 4.296.004 8.592.004 12.889zm16.384-.037v12.857c0 .558 0 .558-.549.558h-10.861c-.534 0-.534 0-.534-.54V13.198c0-.55 0-.55.549-.55h10.893c.499 0 .502 0 .502.495v12.864z" fill="#B9FF1F"/></g><g clip-path="url(#clip2_109_150)"><path d="M96.011 142H6.685c-.066-.018-.129-.037-.195-.051-2.377-.478-4.212-1.734-5.461-3.831-.557-.932-.839-1.961-1.033-3.018V96.985c.128-.669.26-1.333.51-1.972a7.903 7.903 0 017.325-5.01c29.003 0 58.005 0 87.008-.003a7.891 7.891 0 017.879 7.87c0 .925.011 1.854-.004 2.78-.007.327.121.429.432.422a39.247 39.247 0 011.971 0c1.095.029 1.883.786 1.883 1.807.003 8.762.003 17.528 0 26.29 0 1.017-.78 1.788-1.806 1.796-.681.007-1.359 0-2.04.003-.421 0-.425.011-.436.434-.029 1.193.069 2.387-.059 3.58-.267 2.53-1.513 4.455-3.608 5.85-.926.621-1.967.937-3.04 1.168zM51.383 97.278H8.193c-.78 0-.944.162-.944.93v35.636c0 .11-.004.224.003.334.019.286.172.474.44.573.194.073.395.059.593.059H94.4c.164 0 .333-.004.498-.03.311-.051.498-.238.534-.554a3.32 3.32 0 00.022-.434V98.288c0-.132.004-.268-.014-.4-.052-.407-.25-.587-.66-.602-.142-.008-.289-.004-.436-.004-14.321-.004-28.643-.004-42.961-.004z" fill="#1D1D1B"/><path d="M12.611 116.044v-12.86c0-.526 0-.529.535-.529h10.897c.505 0 .51 0 .51.496v25.79c0 .47-.02.485-.495.485H13.09c-.48 0-.484-.004-.484-.488.004-4.297.004-8.597.004-12.894zm16.38-.04V103.18c0-.529 0-.529.535-.529h10.893c.513 0 .517 0 .517.522v25.713c0 .536 0 .536-.542.536h-10.86c-.543 0-.543 0-.543-.562v-12.856zm28.329.003v12.857c0 .558 0 .558-.549.558h-10.86c-.531 0-.535 0-.535-.54v-25.717c0-.518 0-.518.513-.518h10.93c.502 0 .502 0 .502.496v12.864zm16.38.037v12.824c0 .554 0 .558-.553.558h-10.86c-.531 0-.531 0-.531-.544v-25.68c0-.547 0-.547.55-.547h10.893c.498 0 .498 0 .498.499.004 4.297.004 8.593.004 12.89zm16.385-.037v12.857c0 .558 0 .558-.55.558h-10.86c-.534 0-.534 0-.534-.54v-25.684c0-.551 0-.551.55-.551h10.892c.499 0 .502 0 .502.496v12.864z" fill="#B9FF1F"/></g><g clip-path="url(#clip3_109_150)"><path d="M400.011 142h-89.326c-.066-.018-.129-.037-.195-.051-2.377-.478-4.212-1.734-5.461-3.831-.557-.932-.839-1.961-1.033-3.018V96.985c.128-.669.26-1.333.509-1.972a7.904 7.904 0 017.326-5.01c29.003 0 58.005 0 87.008-.003a7.891 7.891 0 017.879 7.87c0 .925.011 1.854-.004 2.78-.007.327.121.429.432.422a39.247 39.247 0 011.971 0c1.095.029 1.883.786 1.883 1.807.003 8.762.003 17.528 0 26.29 0 1.017-.78 1.788-1.806 1.796-.681.007-1.359 0-2.04.003-.421 0-.425.011-.436.434-.029 1.193.069 2.387-.059 3.58-.267 2.53-1.513 4.455-3.608 5.85-.926.621-1.967.937-3.04 1.168zm-44.628-44.722h-43.189c-.781 0-.945.162-.945.93v35.636c0 .11-.004.224.003.334.019.286.172.474.44.573.194.073.395.059.593.059h86.114c.165 0 .334-.004.499-.03.311-.051.498-.238.534-.554a3.32 3.32 0 00.022-.434V98.288c0-.132.004-.268-.014-.4-.052-.407-.249-.587-.66-.602-.142-.008-.289-.004-.435-.004-14.322-.004-28.644-.004-42.962-.004z" fill="#1D1D1B"/><path d="M316.611 116.044v-12.86c0-.526 0-.529.535-.529h10.897c.505 0 .509 0 .509.496v25.79c0 .47-.018.485-.494.485h-10.967c-.48 0-.484-.004-.484-.488.004-4.297.004-8.597.004-12.894zm16.38-.04V103.18c0-.529 0-.529.535-.529h10.893c.513 0 .517 0 .517.522v25.713c0 .536 0 .536-.542.536h-10.861c-.542 0-.542 0-.542-.562v-12.856zm28.33.003v12.857c0 .558 0 .558-.55.558h-10.86c-.531 0-.535 0-.535-.54v-25.717c0-.518 0-.518.513-.518h10.93c.502 0 .502 0 .502.496v12.864zm16.38.037v12.824c0 .554 0 .558-.554.558h-10.86c-.531 0-.531 0-.531-.544v-25.68c0-.547 0-.547.549-.547h10.894c.498 0 .498 0 .498.499.004 4.297.004 8.593.004 12.89zm16.384-.037v12.857c0 .558 0 .558-.549.558h-10.861c-.534 0-.534 0-.534-.54v-25.684c0-.551 0-.551.549-.551h10.893c.499 0 .502 0 .502.496v12.864z" fill="#B9FF1F"/></g><g clip-path="url(#clip4_109_150)"><path d="M96.011 229H6.685c-.066-.018-.129-.037-.195-.051-2.377-.478-4.212-1.734-5.461-3.831-.557-.932-.839-1.961-1.033-3.018v-38.115c.128-.669.26-1.333.51-1.972a7.902 7.902 0 017.325-5.009c29.003 0 58.005 0 87.008-.004a7.893 7.893 0 017.879 7.87c0 .925.011 1.854-.004 2.78-.007.327.121.429.432.422a39.247 39.247 0 011.971 0c1.095.029 1.883.786 1.883 1.807.003 8.762.003 17.528 0 26.29 0 1.017-.78 1.788-1.806 1.796-.681.007-1.359 0-2.04.003-.421 0-.425.011-.436.434-.029 1.193.069 2.387-.059 3.58-.267 2.53-1.513 4.455-3.608 5.85-.926.621-1.967.937-3.04 1.168zm-44.628-44.721H8.193c-.78 0-.944.161-.944.929v35.636c0 .11-.004.224.003.334.019.286.172.474.44.573.194.073.395.059.593.059H94.4c.164 0 .333-.004.498-.03.311-.051.498-.238.534-.554a3.32 3.32 0 00.022-.434v-35.504c0-.132.004-.268-.014-.4-.052-.407-.25-.587-.66-.602-.142-.007-.289-.004-.436-.004-14.321-.003-28.643-.003-42.961-.003z" fill="#1D1D1B"/><path d="M12.611 203.044v-12.86c0-.526 0-.529.535-.529h10.897c.505 0 .51 0 .51.496v25.79c0 .47-.02.485-.495.485H13.09c-.48 0-.484-.004-.484-.488.004-4.297.004-8.597.004-12.894zm16.38-.04V190.18c0-.529 0-.529.535-.529h10.893c.513 0 .517 0 .517.522v25.713c0 .536 0 .536-.542.536h-10.86c-.543 0-.543 0-.543-.562v-12.856zm28.329.003v12.857c0 .558 0 .558-.549.558h-10.86c-.531 0-.535 0-.535-.54v-25.717c0-.518 0-.518.513-.518h10.93c.502 0 .502 0 .502.496v12.864zm16.38.037v12.824c0 .554 0 .558-.553.558h-10.86c-.531 0-.531 0-.531-.544v-25.68c0-.547 0-.547.55-.547h10.893c.498 0 .498 0 .498.499.004 4.297.004 8.593.004 12.89zm16.385-.037v12.857c0 .558 0 .558-.55.558h-10.86c-.534 0-.534 0-.534-.54v-25.684c0-.551 0-.551.55-.551h10.892c.499 0 .502 0 .502.496v12.864z" fill="#B9FF1F"/></g><g clip-path="url(#clip5_109_150)"><path d="M400.011 229h-89.326c-.066-.018-.129-.037-.195-.051-2.377-.478-4.212-1.734-5.461-3.831-.557-.932-.839-1.961-1.033-3.018v-38.115c.128-.669.26-1.333.509-1.972a7.903 7.903 0 017.326-5.009c29.003 0 58.005 0 87.008-.004a7.893 7.893 0 017.879 7.87c0 .925.011 1.854-.004 2.78-.007.327.121.429.432.422a39.247 39.247 0 011.971 0c1.095.029 1.883.786 1.883 1.807.003 8.762.003 17.528 0 26.29 0 1.017-.78 1.788-1.806 1.796-.681.007-1.359 0-2.04.003-.421 0-.425.011-.436.434-.029 1.193.069 2.387-.059 3.58-.267 2.53-1.513 4.455-3.608 5.85-.926.621-1.967.937-3.04 1.168zm-44.628-44.721h-43.189c-.781 0-.945.161-.945.929v35.636c0 .11-.004.224.003.334.019.286.172.474.44.573.194.073.395.059.593.059h86.114c.165 0 .334-.004.499-.03.311-.051.498-.238.534-.554a3.32 3.32 0 00.022-.434v-35.504c0-.132.004-.268-.014-.4-.052-.407-.249-.587-.66-.602-.142-.007-.289-.004-.435-.004-14.322-.003-28.644-.003-42.962-.003z" fill="#1D1D1B"/><path d="M316.611 203.044v-12.86c0-.526 0-.529.535-.529h10.897c.505 0 .509 0 .509.496v25.79c0 .47-.018.485-.494.485h-10.967c-.48 0-.484-.004-.484-.488.004-4.297.004-8.597.004-12.894zm16.38-.04V190.18c0-.529 0-.529.535-.529h10.893c.513 0 .517 0 .517.522v25.713c0 .536 0 .536-.542.536h-10.861c-.542 0-.542 0-.542-.562v-12.856zm28.33.003v12.857c0 .558 0 .558-.55.558h-10.86c-.531 0-.535 0-.535-.54v-25.717c0-.518 0-.518.513-.518h10.93c.502 0 .502 0 .502.496v12.864zm16.38.037v12.824c0 .554 0 .558-.554.558h-10.86c-.531 0-.531 0-.531-.544v-25.68c0-.547 0-.547.549-.547h10.894c.498 0 .498 0 .498.499.004 4.297.004 8.593.004 12.89zm16.384-.037v12.857c0 .558 0 .558-.549.558h-10.861c-.534 0-.534 0-.534-.54v-25.684c0-.551 0-.551.549-.551h10.893c.499 0 .502 0 .502.496v12.864z" fill="#B9FF1F"/></g><g clip-path="url(#clip6_109_150)"><path d="M252.011 52h-89.326c-.066-.018-.129-.037-.195-.051-2.377-.478-4.212-1.734-5.461-3.83-.557-.933-.839-1.962-1.033-3.02V6.986c.128-.669.26-1.333.509-1.972a7.904 7.904 0 017.326-5.01c29.003 0 58.005 0 87.008-.003a7.891 7.891 0 017.879 7.87c0 .925.011 1.854-.004 2.78-.007.327.121.43.432.422a39.247 39.247 0 011.971 0c1.095.03 1.883.786 1.883 1.807.003 8.762.003 17.528 0 26.29 0 1.017-.78 1.788-1.806 1.796-.681.007-1.359 0-2.04.003-.421 0-.425.011-.436.434-.029 1.193.069 2.387-.059 3.58-.267 2.53-1.513 4.455-3.608 5.85-.926.62-1.967.937-3.04 1.168zM207.383 7.279h-43.189c-.781 0-.945.161-.945.929v35.636c0 .11-.004.224.003.334.019.286.172.474.44.573.194.073.395.059.593.059h86.114c.165 0 .334-.004.499-.03.311-.051.498-.239.534-.554a3.31 3.31 0 00.022-.434V8.288c0-.132.004-.268-.014-.4-.052-.407-.249-.587-.66-.602-.142-.007-.289-.004-.435-.004-14.322-.003-28.644-.003-42.962-.003z" fill="#1D1D1B"/><path d="M168.611 26.044v-12.86c0-.525 0-.53.535-.53h10.897c.505 0 .509 0 .509.496v25.791c0 .47-.018.485-.494.485h-10.967c-.48 0-.484-.004-.484-.488.004-4.297.004-8.597.004-12.894zm16.38-.04V13.18c0-.529 0-.529.535-.529h10.893c.513 0 .517 0 .517.522v25.713c0 .536 0 .536-.542.536h-10.861c-.542 0-.542 0-.542-.562V26.004zm28.33.003v12.857c0 .558 0 .558-.55.558h-10.86c-.531 0-.535 0-.535-.54V13.166c0-.517 0-.517.513-.517h10.93c.502 0 .502 0 .502.495v12.864zm16.38.037v12.824c0 .554 0 .558-.554.558h-10.86c-.531 0-.531 0-.531-.544v-25.68c0-.547 0-.547.549-.547h10.894c.498 0 .498 0 .498.5.004 4.296.004 8.592.004 12.889zm16.384-.037v12.857c0 .558 0 .558-.549.558h-10.861c-.534 0-.534 0-.534-.54V13.198c0-.55 0-.55.549-.55h10.893c.499 0 .502 0 .502.495v12.864z" fill="#B9FF1F"/></g><g clip-path="url(#clip7_109_150)"><path d="M252.011 142h-89.326c-.066-.018-.129-.037-.195-.051-2.377-.478-4.212-1.734-5.461-3.831-.557-.932-.839-1.961-1.033-3.018V96.985c.128-.669.26-1.333.509-1.972a7.904 7.904 0 017.326-5.01c29.003 0 58.005 0 87.008-.003a7.891 7.891 0 017.879 7.87c0 .925.011 1.854-.004 2.78-.007.327.121.429.432.422a39.247 39.247 0 011.971 0c1.095.029 1.883.786 1.883 1.807.003 8.762.003 17.528 0 26.29 0 1.017-.78 1.788-1.806 1.796-.681.007-1.359 0-2.04.003-.421 0-.425.011-.436.434-.029 1.193.069 2.387-.059 3.58-.267 2.53-1.513 4.455-3.608 5.85-.926.621-1.967.937-3.04 1.168zm-44.628-44.722h-43.189c-.781 0-.945.162-.945.93v35.636c0 .11-.004.224.003.334.019.286.172.474.44.573.194.073.395.059.593.059h86.114c.165 0 .334-.004.499-.03.311-.051.498-.238.534-.554a3.32 3.32 0 00.022-.434V98.288c0-.132.004-.268-.014-.4-.052-.407-.249-.587-.66-.602-.142-.008-.289-.004-.435-.004-14.322-.004-28.644-.004-42.962-.004z" fill="#1D1D1B"/><path d="M168.611 116.044v-12.86c0-.526 0-.529.535-.529h10.897c.505 0 .509 0 .509.496v25.79c0 .47-.018.485-.494.485h-10.967c-.48 0-.484-.004-.484-.488.004-4.297.004-8.597.004-12.894zm16.38-.04V103.18c0-.529 0-.529.535-.529h10.893c.513 0 .517 0 .517.522v25.713c0 .536 0 .536-.542.536h-10.861c-.542 0-.542 0-.542-.562v-12.856zm28.33.003v12.857c0 .558 0 .558-.55.558h-10.86c-.531 0-.535 0-.535-.54v-25.717c0-.518 0-.518.513-.518h10.93c.502 0 .502 0 .502.496v12.864zm16.38.037v12.824c0 .554 0 .558-.554.558h-10.86c-.531 0-.531 0-.531-.544v-25.68c0-.547 0-.547.549-.547h10.894c.498 0 .498 0 .498.499.004 4.297.004 8.593.004 12.89zm16.384-.037v12.857c0 .558 0 .558-.549.558h-10.861c-.534 0-.534 0-.534-.54v-25.684c0-.551 0-.551.549-.551h10.893c.499 0 .502 0 .502.496v12.864z" fill="#B9FF1F"/></g><g clip-path="url(#clip8_109_150)"><path d="M252.011 229h-89.326c-.066-.018-.129-.037-.195-.051-2.377-.478-4.212-1.734-5.461-3.831-.557-.932-.839-1.961-1.033-3.018v-38.115c.128-.669.26-1.333.509-1.972a7.903 7.903 0 017.326-5.009c29.003 0 58.005 0 87.008-.004a7.893 7.893 0 017.879 7.87c0 .925.011 1.854-.004 2.78-.007.327.121.429.432.422a39.247 39.247 0 011.971 0c1.095.029 1.883.786 1.883 1.807.003 8.762.003 17.528 0 26.29 0 1.017-.78 1.788-1.806 1.796-.681.007-1.359 0-2.04.003-.421 0-.425.011-.436.434-.029 1.193.069 2.387-.059 3.58-.267 2.53-1.513 4.455-3.608 5.85-.926.621-1.967.937-3.04 1.168zm-44.628-44.721h-43.189c-.781 0-.945.161-.945.929v35.636c0 .11-.004.224.003.334.019.286.172.474.44.573.194.073.395.059.593.059h86.114c.165 0 .334-.004.499-.03.311-.051.498-.238.534-.554a3.32 3.32 0 00.022-.434v-35.504c0-.132.004-.268-.014-.4-.052-.407-.249-.587-.66-.602-.142-.007-.289-.004-.435-.004-14.322-.003-28.644-.003-42.962-.003z" fill="#1D1D1B"/><path d="M168.611 203.044v-12.86c0-.526 0-.529.535-.529h10.897c.505 0 .509 0 .509.496v25.79c0 .47-.018.485-.494.485h-10.967c-.48 0-.484-.004-.484-.488.004-4.297.004-8.597.004-12.894zm16.38-.04V190.18c0-.529 0-.529.535-.529h10.893c.513 0 .517 0 .517.522v25.713c0 .536 0 .536-.542.536h-10.861c-.542 0-.542 0-.542-.562v-12.856zm28.33.003v12.857c0 .558 0 .558-.55.558h-10.86c-.531 0-.535 0-.535-.54v-25.717c0-.518 0-.518.513-.518h10.93c.502 0 .502 0 .502.496v12.864zm16.38.037v12.824c0 .554 0 .558-.554.558h-10.86c-.531 0-.531 0-.531-.544v-25.68c0-.547 0-.547.549-.547h10.894c.498 0 .498 0 .498.499.004 4.297.004 8.593.004 12.89zm16.384-.037v12.857c0 .558 0 .558-.549.558h-10.861c-.534 0-.534 0-.534-.54v-25.684c0-.551 0-.551.549-.551h10.893c.499 0 .502 0 .502.496v12.864z" fill="#B9FF1F"/></g><defs><clipPath id="clip0_109_150"><path fill="#fff" d="M0 0h107v52H0z"/></clipPath><clipPath id="clip1_109_150"><path fill="#fff" transform="translate(304)" d="M0 0h107v52H0z"/></clipPath><clipPath id="clip2_109_150"><path fill="#fff" transform="translate(0 90)" d="M0 0h107v52H0z"/></clipPath><clipPath id="clip3_109_150"><path fill="#fff" transform="translate(304 90)" d="M0 0h107v52H0z"/></clipPath><clipPath id="clip4_109_150"><path fill="#fff" transform="translate(0 177)" d="M0 0h107v52H0z"/></clipPath><clipPath id="clip5_109_150"><path fill="#fff" transform="translate(304 177)" d="M0 0h107v52H0z"/></clipPath><clipPath id="clip6_109_150"><path fill="#fff" transform="translate(156)" d="M0 0h107v52H0z"/></clipPath><clipPath id="clip7_109_150"><path fill="#fff" transform="translate(156 90)" d="M0 0h107v52H0z"/></clipPath><clipPath id="clip8_109_150"><path fill="#fff" transform="translate(156 177)" d="M0 0h107v52H0z"/></clipPath></defs></svg>