<svg width="106" height="402" fill="none" xmlns="http://www.w3.org/2000/svg"><path d="M105.237 152.207c-.11-2.301-.825-4.437-1.485-6.629-.605-1.917-.825-3.78-.935-5.807-.33-6.519 0-13.039-.33-19.558-.275-6.027-.44-12.053-.935-18.025-.111-1.698.385-3.451.44-5.204.165-5.972-1.706-11.505-3.576-17.038-1.266-3.671-3.631-6.41-6.877-8.492-2.31-1.48-5.061-1.644-7.702-2.137-5.941-1.095-11.222-3.506-15.458-7.889-1.54-1.589-2.366-3.67-3.356-5.643a2.55 2.55 0 01-.165-.931c0-3.013.165-5.972.66-8.93.33-1.972 1.32-3.89 2.036-5.807.055-.22.11-.384.385-.439 1.43-.219 1.76-1.424 1.705-2.465-.055-1.534.33-2.849 1.155-4.054 1.376-2.137 1.376-4.547 1.816-6.903v-.11c-.11-.657 0-1.534-.825-1.862-.936-.384-1.156.493-1.706.986 1.266-5.588.77-10.848-2.09-15.833C65.078 4.232 59.082 1.11 53.14 1c-5.996.11-11.938 3.287-14.853 8.437-2.806 4.985-3.356 10.245-2.09 15.833-.55-.493-.77-1.37-1.706-.986-.825.328-.66 1.15-.825 1.862v.11c.44 2.356.44 4.766 1.815 6.903.77 1.205 1.21 2.52 1.155 4.054 0 1.04.275 2.301 1.706 2.465.275 0 .33.22.385.439.715 1.917 1.705 3.835 2.035 5.807.495 2.958.66 5.917.66 8.93 0 .329 0 .657-.165.931-.99 1.973-1.815 4.054-3.355 5.643-4.236 4.383-9.518 6.794-15.459 7.89-2.64.492-5.336.657-7.702 2.136-3.19 2.082-5.611 4.82-6.876 8.492-1.926 5.533-3.741 11.066-3.576 17.038 0 1.753.55 3.451.44 5.204-.44 6.027-.66 11.998-.935 18.025-.275 6.519 0 13.039-.33 19.558-.11 1.972-.33 3.89-.936 5.807-.66 2.192-1.375 4.328-1.485 6.629-.22 5.205.44 10.355 1.155 15.45.825 5.752 1.21 11.505.825 17.312-.165 2.191-.44 4.437.826 6.519.385.603.22 1.425.22 2.137 0 4.766-.935 9.478-1.54 14.189-.11.712-.22 1.425 0 2.082.605 1.479.825 3.068 1.265 4.657.33 1.15.33 2.575 1.32 3.451.66.603 1.1 1.26 1.54 1.972.716 1.206 1.21 2.521 2.146 3.562 2.035 2.301 4.676 3.999 6.601 6.409.11.165.33.329.55.329.88 0 .99.712 1.1 1.26 1.266 5.862 3.357 11.45 5.392 17.093 2.696 7.506 5.061 15.121 6.326 23.065.44 2.684.496 5.423.77 8.108.22 2.41.606 4.876.77 7.286.33 3.945-.55 7.725-1.54 11.45-1.595 5.972-2.53 11.998-1.65 18.244.935 6.793 2.146 13.532 3.961 20.161 2.2 7.999 4.896 15.833 6.987 23.886 1.43 5.479 2.365 10.903.22 16.381-.33.877-.33 1.808.11 2.63.825 1.479.275 2.684-.33 4.054-1.1 2.41-3.136 4.054-4.676 6.191-1.156 1.643-2.421 3.068-4.621 3.177-1.486.055-2.036 1.698-3.356 2.082-.826.219-.99.767-.99 1.534s.275 1.26.935 1.589c1.265.657 2.53 1.15 3.906 1.643 2.2.767 4.51.822 6.711.713 1.156-.11 2.036-.165 3.246.219 1.43.493 3.19.657 4.621-.493.385-.329.825-.329 1.265-.329 1.98-.164 3.191-1.37 3.301-3.342.055-.877.33-1.26 1.265-1.315 1.1-.109 2.2-.602 2.256-1.917.11-2.301.33-4.657-.715-6.848-.275-.548-.385-1.096-.055-1.644.55-.986.605-2.027.605-3.123 0-1.315-.055-2.575.33-3.835.385-1.096.22-2.191-.33-3.232-.495-.931-.99-1.863-1.1-3.013-.33-2.685-.33-5.314-.495-7.999-.22-3.561-.33-7.122-.606-10.683-.44-4.986-.275-9.971.826-14.902.88-3.889 1.705-7.779 1.32-11.778-.275-2.904-.385-5.862-.66-8.821-.385-3.78-.825-7.505-1.54-11.231-.936-4.931-1.266-9.861-.496-14.901.44-2.685.88-5.369 1.1-8.054.44-4.602.66-9.149.55-13.751 0-.329 0-.712.11-1.041 1.761-7.341 1.156-14.682.77-22.078-.22-3.89-.55-7.725-.33-11.615.276-4.109.716-8.163.77-12.272 0-2.575-.054-5.204-.054-7.779 0-1.151 0-2.301.275-3.452.11-.493.33-1.041.935-1.041.55 0 .77.548.935 1.041.33 1.151.275 2.301.275 3.452 0 2.575-.11 5.204-.055 7.779 0 4.109.496 8.163.77 12.272.276 3.89-.11 7.78-.33 11.615-.385 7.396-.99 14.792.77 22.078.11.329.11.712.11 1.041-.11 4.602.11 9.204.55 13.751.276 2.685.661 5.369 1.101 8.054.825 4.985.44 9.916-.495 14.901-.715 3.726-1.155 7.451-1.54 11.231-.275 2.904-.385 5.862-.66 8.821-.386 3.999.44 7.889 1.32 11.778 1.1 4.931 1.265 9.862.825 14.902-.33 3.561-.385 7.122-.605 10.683-.165 2.685-.165 5.369-.495 7.999-.11 1.095-.605 2.027-1.1 3.013-.55 1.041-.716 2.082-.33 3.232.44 1.26.385 2.575.33 3.835 0 1.096 0 2.137.605 3.123.33.548.22 1.096-.055 1.644-1.046 2.191-.826 4.547-.716 6.848.056 1.315 1.156 1.753 2.256 1.917.935.11 1.155.493 1.265 1.315.11 1.972 1.376 3.178 3.301 3.342.44 0 .88 0 1.265.329 1.43 1.15 3.191.986 4.621.493 1.21-.384 2.09-.329 3.246-.219 2.2.164 4.511.054 6.712-.713a24.523 24.523 0 003.906-1.643c.715-.384.935-.877.935-1.589 0-.767-.22-1.315-.99-1.534-1.32-.329-1.87-2.027-3.356-2.082-2.256-.055-3.466-1.534-4.621-3.177-1.486-2.082-3.576-3.726-4.676-6.191-.605-1.37-1.156-2.575-.33-4.054.44-.767.44-1.753.11-2.63-2.146-5.478-1.21-10.902.22-16.381 2.09-7.998 4.84-15.887 6.986-23.886 1.816-6.629 2.971-13.368 3.961-20.161.88-6.246-.055-12.217-1.65-18.244-.99-3.725-1.87-7.56-1.54-11.45.22-2.465.55-4.876.77-7.286.275-2.685.33-5.424.77-8.108 1.265-7.889 3.63-15.504 6.326-23.065 2.036-5.643 4.126-11.231 5.392-17.093.11-.602.275-1.26 1.1-1.26.165 0 .385-.219.55-.329 1.925-2.41 4.566-4.108 6.602-6.409.935-1.041 1.43-2.356 2.145-3.562.44-.712.88-1.369 1.54-1.972.991-.876.991-2.246 1.321-3.451.385-1.534.66-3.123 1.265-4.657.275-.712.11-1.37 0-2.082-.605-4.711-1.485-9.423-1.54-14.189 0-.712-.165-1.479.22-2.137 1.265-2.082.99-4.328.825-6.519-.385-5.807 0-11.56.825-17.312.77-5.095 1.43-10.245 1.155-15.45zm-79.933-3.561c-3.411 5.26-4.951 11.122-5.447 17.257-.55 6.027-1.815 11.944-3.025 17.915-.605 2.904-.88 5.862-1.32 9.04-1.706-2.192-2.036-4.602-2.091-6.958-.11-4.931.77-9.752 1.925-14.518 1.376-5.588 2.146-11.286 2.366-17.038.055-1.863.275-3.726.44-5.588.22-1.918 0-3.835-.275-5.753-.55-3.177-.44-6.245.275-9.368 1.43-6.41 1.816-12.984 1.98-19.23-.165 2.247 1.1 4.493 1.266 7.013.44 6.026 2.145 11.834 3.906 17.586.715 2.356.66 4.821.77 7.286a4.19 4.19 0 01-.77 2.411v-.055zm65.52 44.212c-.44-3.123-.77-6.136-1.32-9.04-1.21-5.917-2.476-11.833-3.026-17.915-.55-6.19-2.09-11.997-5.446-17.257-.44-.712-.77-1.534-.77-2.41.055-2.466 0-4.931.77-7.287 1.76-5.752 3.466-11.505 3.906-17.586.165-2.465 1.43-4.766 1.265-7.012.165 6.245.55 12.819 1.98 19.229.716 3.178.826 6.191.275 9.368-.33 1.863-.495 3.781-.275 5.753.22 1.863.385 3.725.44 5.588.22 5.752.99 11.45 2.366 17.038 1.155 4.767 2.035 9.588 1.925 14.518-.055 2.411-.385 4.767-2.09 6.958v.055z" stroke="#1D1D1B" stroke-width=".5" stroke-miterlimit="10"/></svg>