<svg width="49" height="37" fill="none" xmlns="http://www.w3.org/2000/svg"><g clip-path="url(#clip0_101_4)" fill="#B9FF1F"><path d="M2.277 15.056c.144.068.282.13.41.176.127.045.21.068.238.068.243.028.409.034.503.011a.51.51 0 00.249-.153c.21-.966.42-1.897.625-2.794.205-.898.393-1.79.559-2.675a.335.335 0 01.238.045c.083.046.16.057.238.023.138-.029.221-.097.249-.199.027-.102.121-.165.27-.199.123.125.355.341.698.653.343.313.736.67 1.184 1.074.448.403.924.84 1.438 1.3.51.46.996.892 1.46 1.3.466.404.875.768 1.23 1.074.353.313.608.523.763.63.348-.215.691-.414 1.023-.596a6.88 6.88 0 00.819-.505c-.487-.42-1.04-.931-1.665-1.534a908.904 908.904 0 00-1.926-1.845A72.147 72.147 0 008.9 9.087a23.468 23.468 0 00-1.832-1.483c.106-.153.31-.38.603-.675.3-.296.637-.642 1.024-1.028a53.51 53.51 0 001.228-1.278 52.7 52.7 0 001.25-1.369c.404-.454.77-.891 1.096-1.312.326-.42.564-.8.72-1.147.016-.045-.04-.12-.161-.21a3.423 3.423 0 00-.443-.278 4.506 4.506 0 00-.514-.233c-.166-.063-.288-.085-.366-.068A33.494 33.494 0 008.303 3.22a789.495 789.495 0 01-2.678 3.078c.166-.766.343-1.63.526-2.595.183-.966.354-1.863.526-2.692L4.358.494c-.061.358-.16.88-.3 1.568-.138.687-.287 1.465-.453 2.34-.166.874-.343 1.794-.537 2.77-.188.978-.37 1.926-.536 2.852-.166.926-.321 1.789-.454 2.584a85.867 85.867 0 00-.32 1.965c-.017.08.027.159.138.244.105.085.232.165.376.233l.005.006z"/><path d="M16.136 14.317c.592.42 1.206.676 1.848.773a5.04 5.04 0 002.346-.585 7.14 7.14 0 002.013-1.534 7.602 7.602 0 001.411-2.175 6.287 6.287 0 00.537-2.516c0-.579-.116-1.136-.343-1.686a5.753 5.753 0 00-.913-1.5 6.734 6.734 0 00-1.3-1.192 5.748 5.748 0 00-1.505-.773c-.487.267-1.018.602-1.593 1.005a14.98 14.98 0 00-1.666 1.358A13.33 13.33 0 0015.5 7.127a7.467 7.467 0 00-1.035 1.846 5.128 5.128 0 00-.343 1.965c.017.67.222 1.335.614 1.988.332.5.797.96 1.389 1.38l.011.011zm-.011-3.941a8.11 8.11 0 011.14-2.255 11.268 11.268 0 011.776-1.93 21.8 21.8 0 012.312-1.744c.714.483 1.173 1.09 1.378 1.823a4.5 4.5 0 01.033 2.266 6.711 6.711 0 01-1.013 2.255 7.365 7.365 0 01-1.72 1.811 4.864 4.864 0 01-2.12.915c-.757.124-1.487-.023-2.184-.444 0-.982.132-1.88.398-2.703v.006zm8.686 4.657c.93-1.744 1.854-3.487 2.777-5.225.93-1.738 1.854-3.481 2.778-5.225.166.67.315 1.318.442 1.942.128.625.26 1.238.388 1.835.127.602.26 1.21.398 1.823s.299 1.25.481 1.908c.089.125.222.233.388.318.166.085.343.153.525.199.183.045.36.068.537.068.177 0 .32-.023.442-.068a54.38 54.38 0 01-.603-2.652 275.63 275.63 0 01-.558-2.863c-.183-.965-.354-1.93-.526-2.89a80.531 80.531 0 00-.526-2.75 5.218 5.218 0 00-.88-.55c-.326-.165-.663-.159-1.012.011a44.62 44.62 0 00-1.72 2.982 165.082 165.082 0 00-1.776 3.447 129.026 129.026 0 00-1.654 3.436 191.572 191.572 0 00-1.345 2.993.482.482 0 00.033.443c.083.142.21.267.377.375.166.108.343.204.536.278.188.08.354.13.493.165h.005zm11.945-.716c.592.42 1.206.676 1.847.773a5.04 5.04 0 002.346-.585 7.138 7.138 0 002.014-1.534 7.6 7.6 0 001.41-2.175 6.287 6.287 0 00.538-2.516c0-.579-.117-1.136-.344-1.686a5.661 5.661 0 00-.912-1.5 6.734 6.734 0 00-1.3-1.192 5.749 5.749 0 00-1.505-.773 17.35 17.35 0 00-1.594 1.005 14.98 14.98 0 00-1.665 1.358c-.531.5-1.023 1.045-1.472 1.635a7.464 7.464 0 00-1.034 1.846 5.13 5.13 0 00-.343 1.965c.016.67.221 1.335.614 1.988.332.5.797.96 1.389 1.38l.01.011zm-.011-3.941a8.11 8.11 0 011.14-2.255 11.264 11.264 0 011.775-1.93 21.789 21.789 0 012.313-1.744c.713.483 1.173 1.09 1.377 1.823.205.732.216 1.488.033 2.266a6.713 6.713 0 01-1.012 2.255 7.367 7.367 0 01-1.72 1.811 4.865 4.865 0 01-2.12.915c-.757.124-1.488-.023-2.185-.444 0-.982.133-1.88.399-2.703v.006zM13.99 35.245a7.319 7.319 0 01-.526-.363 9.342 9.342 0 01-.57-.466c-.182-.165-.32-.284-.409-.363.238-.506.47-.989.708-1.488a81.605 81.605 0 00-1.145-1.58c-.47-.63-.935-1.249-1.389-1.856-.453-.608-.874-1.17-1.25-1.681.288-.392.614-.824.98-1.301.364-.477.724-.948 1.084-1.425.354-.478.697-.932 1.012-1.37.32-.436.57-.817.753-1.146.077-.125.071-.262-.012-.41a1.357 1.357 0 00-.387-.42c-.177-.13-.37-.25-.592-.352a3.31 3.31 0 00-.625-.221 40.014 40.014 0 00-1.81 2.243 89.018 89.018 0 01-1.808 2.317 19.117 19.117 0 00-1.206-1.686c-.443-.546-.88-1.085-1.312-1.625a71 71 0 01-1.266-1.635 12.08 12.08 0 01-1.074-1.721 1.025 1.025 0 00-.559-.176 1.922 1.922 0 00-.647.09 2.794 2.794 0 00-.603.279 1.5 1.5 0 00-.442.409c.409.67.846 1.335 1.31 1.988.465.653.936 1.311 1.411 1.965.476.653.952 1.311 1.422 1.976s.913 1.329 1.323 2a83.756 83.756 0 00-2.43 3.213 73.679 73.679 0 01-2.428 3.215c.2.33.415.63.658.914.244.279.57.466.98.563.348-.5.758-1.057 1.228-1.67a85.958 85.958 0 012.628-3.266c.37-.437.625-.738.763-.914.2.312.52.744.969 1.3.448.557.929 1.142 1.449 1.767.514.624 1.018 1.226 1.505 1.8.487.58.863 1.045 1.14 1.403.149.045.348.057.591.023.244-.035.47-.086.687-.165.21-.08.381-.182.503-.307s.144-.25.066-.375a1 1 0 00-.05-.08c-.121.217-.226.438-.353.654-.034.045-.122.023-.272-.068l-.005.011z"/><path d="M23.102 34.501c-.028-.204-.056-.392-.089-.625-.022-.17-.05-.369-.078-.55l-.282-1.988c-.138-.937-.276-1.886-.42-2.84l-.42-2.817c-.139-.92-.26-1.732-.377-2.442a72.084 72.084 0 00-.299-1.72c-.082-.438-.132-.654-.149-.654h-2.185a1162.493 1162.493 0 00-3.098 6.458c-.808 1.698-1.65 3.458-2.507 5.247-.238.494-.47.983-.708 1.488.089.08.227.199.41.364.182.164.37.318.57.465.199.148.37.267.525.364.15.09.244.12.271.068.127-.216.232-.437.354-.653.244-.438.493-.88.714-1.323.332-.665.675-1.33 1.023-2a44.247 44.247 0 001.87-.142 9.76 9.76 0 012.03.023c.017.341.056.727.117 1.147.06.42.127.858.194 1.312.066.455.138.903.204 1.346.067.443.133.864.194 1.25.044.045.16.09.354.13.188.04.41.069.658.091.25.023.504.046.764.057.26.017.481.023.658.023-.016-.08-.055-.358-.127-.84l-.177-1.239h.006zM18.73 29.05c-.47.034-.902.08-1.3.142.287-.704.603-1.397.946-2.095.343-.693.664-1.392.968-2.096.138.642.238 1.26.31 1.868.066.608.138 1.34.215 2.198a5.152 5.152 0 00-1.14-.023v.006zm29.96-7.083a1.37 1.37 0 00-.46-.34 3.017 3.017 0 00-.647-.233 3.176 3.176 0 00-.659-.097c-.47.806-.93 1.658-1.372 2.55a86.844 86.844 0 01-1.36 2.618c-.466-.5-.958-.971-1.495-1.425a285.21 285.21 0 00-1.582-1.346 59.347 59.347 0 01-1.538-1.37 12.03 12.03 0 01-1.36-1.481.981.981 0 00-.582-.069 1.878 1.878 0 00-.62.216 2.683 2.683 0 00-.542.392 1.387 1.387 0 00-.36.489 36.111 36.111 0 001.65 1.703c.575.557 1.156 1.108 1.742 1.659.587.55 1.173 1.107 1.76 1.67.58.562 1.134 1.13 1.66 1.715a78.03 78.03 0 00-1.804 3.623 77.935 77.935 0 01-1.804 3.623c.255.284.526.54.813.773.288.227.642.352 1.063.363.254-.557.553-1.181.907-1.88.348-.693.697-1.363 1.045-1.999.343-.636.664-1.21.952-1.71.288-.5 2.318-4.094 2.59-4.634.27-.54.541-1.073.807-1.607s.515-1.045.747-1.539c.232-.488.41-.914.531-1.266.05-.137.022-.273-.083-.398zm-12.427 3.266c-.21-.483-.47-.88-.774-1.193a8.397 8.397 0 00-1.024-.886 9.373 9.373 0 00-2.152-1.204 11.1 11.1 0 00-2.357-.63 21.62 21.62 0 00-2.71-.244 94.053 94.053 0 00-3.237-.046c0 .108 0 .256-.011.432-.006.181-.011.363-.011.55 0 .188.005.37.022.552.017.181.044.317.088.408.321.046.626.08.924.108a646.501 646.501 0 001.837.137c.321.022.67.056 1.046.108a111.349 111.349 0 00-1.073 4.85c-.321 1.63-.67 3.316-1.046 5.065-.304 0-.537-.017-.697-.056a.753.753 0 00-.493.056c-.044.091-.033.182.045.267.077.086.177.165.298.233.122.068.25.142.388.21a.564.564 0 01.27.244c-.104.296-.088.585.056.864.144.278.343.494.592.642.249.147.509.193.775.13.265-.062.475-.278.625-.653a6.325 6.325 0 001.97.386 7.915 7.915 0 002.002-.187 8.92 8.92 0 001.914-.665 8.036 8.036 0 001.677-1.073c.47-.5.88-1.085 1.217-1.766a4.816 4.816 0 00.514-2.21c0-1.061-.06-1.942-.182-2.64-.122-.699-.288-1.295-.504-1.778l.011-.011zm-.453 4.838a2.311 2.311 0 01-.592 1.028c-.382.5-.841.898-1.389 1.193a7.356 7.356 0 01-1.787.676 10.61 10.61 0 01-2.041.278 19.24 19.24 0 01-2.142-.023c.183-.75.355-1.533.526-2.35a168.95 168.95 0 011.096-4.976c.199-.823.409-1.613.636-2.362.453.09.935.227 1.433.397.503.17.99.386 1.471.642.476.255.924.556 1.345.891.415.336.769.722 1.056 1.16.139.294.26.64.366 1.027.105.392.16.79.171 1.204a4.18 4.18 0 01-.15 1.204v.011z"/></g><defs><clipPath id="clip0_101_4"><path fill="#fff" transform="translate(.889)" d="M0 0h47.911v37H0z"/></clipPath></defs></svg>