<svg width="87" height="30" fill="none" xmlns="http://www.w3.org/2000/svg"><path d="M6.24 1.144c.185 0 .352.077.503.23a.708.708 0 01.227.507v8.777a.708.708 0 01-.227.509.694.694 0 01-.503.229.694.694 0 01-.503-.23.708.708 0 01-.227-.508V2.755H3.766c0 1.584-.092 2.898-.285 3.94-.193 1.042-.411 1.88-.68 2.524-.268.644-.536 1.11-.813 1.424-.285.305-.512.516-.696.618-.05.025-.1.05-.143.068a.785.785 0 01-.36.068c-.143 0-.294-.068-.437-.22-.142-.145-.218-.289-.218-.433a.848.848 0 01.176-.491c.05-.077.11-.153.193-.229.11-.136.227-.288.361-.449.134-.16.268-.373.403-.635a7.17 7.17 0 00.385-.958c.126-.38.244-.855.344-1.415.1-.567.185-1.228.243-1.99a36.22 36.22 0 00.084-2.711c0-.187.076-.348.227-.5a.684.684 0 01.503-.22H6.24zm4.361.729a.708.708 0 01-.226.508.694.694 0 01-.503.23.694.694 0 01-.503-.23.708.708 0 01-.227-.508c0-.186.076-.356.227-.508a.694.694 0 01.503-.23c.184 0 .352.077.503.23a.708.708 0 01.226.508zM9.218 4.288c0-.187.067-.34.192-.466a.63.63 0 01.462-.187.65.65 0 01.654.653v6.438a.636.636 0 01-.193.466.63.63 0 01-.461.187.616.616 0 01-.462-.187.636.636 0 01-.192-.466V4.288zm8.353 6.438a.636.636 0 01-.193.466.63.63 0 01-.46.187.616.616 0 01-.462-.187.636.636 0 01-.193-.466V7.727H13.94v3a.636.636 0 01-.193.465.63.63 0 01-.461.187.616.616 0 01-.462-.187.636.636 0 01-.193-.466V4.288c0-.187.067-.34.193-.466a.63.63 0 01.462-.187.65.65 0 01.654.653v2.118h2.323V4.288c0-.187.059-.34.193-.466a.616.616 0 01.461-.187.65.65 0 01.654.653v6.438zm7.121 0a.636.636 0 01-.193.466.63.63 0 01-.461.187.616.616 0 01-.461-.187.636.636 0 01-.193-.466V6.558l-2.474 4.389c-.068.11-.16.203-.269.296a.581.581 0 01-.386.136.616.616 0 01-.461-.187.636.636 0 01-.193-.466V4.288c0-.187.067-.34.193-.466a.63.63 0 01.461-.187.65.65 0 01.655.653v4.168l2.474-4.389c.067-.11.159-.203.268-.296a.581.581 0 01.386-.136.65.65 0 01.654.653v6.438zm5.233-3.804c.269.094.512.23.73.407.185.152.352.356.503.602.151.245.227.559.227.931 0 .305-.084.61-.244.915-.167.305-.41.568-.73.805-.318.237-.72.424-1.199.576-.478.153-1.04.22-1.677.22h-.143a.616.616 0 01-.46-.186.631.631 0 01-.194-.457V4.474a.65.65 0 01.193-.466 1 1 0 01.529-.254l.36-.068c.11-.017.227-.034.37-.05.142-.018.284-.026.427-.026.327 0 .629.05.897.152.269.102.495.238.68.407a1.9 1.9 0 01.444.593c.11.229.16.466.16.712a1.4 1.4 0 01-.134.644 1.887 1.887 0 01-.739.804zm-.436-1.321a.615.615 0 00-.218-.492c-.142-.118-.36-.178-.654-.178-.076 0-.151.009-.226.017a3.347 3.347 0 00-.185.026 4.375 4.375 0 00-.176.025v1.415c.511 0 .88-.085 1.115-.246.227-.17.344-.355.344-.567zm-1.45 4.465c.729-.077 1.249-.246 1.56-.509.318-.254.469-.55.469-.881 0-.254-.109-.474-.327-.67-.218-.186-.545-.287-.981-.287h-.73v2.346h.008zm9.88.66a.636.636 0 01-.193.466.63.63 0 01-.462.187.616.616 0 01-.46-.187.636.636 0 01-.194-.466V6.558l-2.474 4.389a1.26 1.26 0 01-.268.296.581.581 0 01-.386.136.616.616 0 01-.462-.187.636.636 0 01-.192-.466V4.288c0-.187.067-.34.192-.466a.63.63 0 01.462-.187.65.65 0 01.654.653v4.168l2.474-4.389c.067-.11.16-.203.269-.296a.582.582 0 01.385-.136.65.65 0 01.655.653v6.438zm7.121 0a.636.636 0 01-.194.466.63.63 0 01-.461.187.616.616 0 01-.461-.187.636.636 0 01-.193-.466V6.558l-2.474 4.389a1.26 1.26 0 01-.269.296.581.581 0 01-.386.136.616.616 0 01-.46-.187.636.636 0 01-.194-.466V4.288c0-.187.067-.34.193-.466a.63.63 0 01.461-.187.65.65 0 01.655.653v4.168l2.474-4.389c.067-.11.16-.203.268-.296a.582.582 0 01.386-.136.65.65 0 01.654.653v6.438zm-2.542-9.15a.525.525 0 00.369-.135.841.841 0 00.21-.297.894.894 0 01.226-.364c.1-.102.243-.144.428-.144a.56.56 0 01.402.186.554.554 0 01.185.407c0 .06-.008.136-.025.237a4.085 4.085 0 00-.025.136c-.076.296-.26.56-.554.805-.294.245-.696.364-1.208.364-.511 0-.914-.119-1.207-.364-.294-.246-.478-.509-.554-.805-.008-.05-.017-.093-.025-.136a1.524 1.524 0 01-.025-.237c0-.144.058-.28.184-.407a.544.544 0 01.403-.186c.184 0 .327.05.428.144.1.102.176.22.226.364a.77.77 0 00.21.297c.075.093.201.135.352.135zM53.393 13.87a.616.616 0 01-.462-.187.636.636 0 01-.192-.466v-2.415c-.101.11-.21.204-.336.297a1.793 1.793 0 01-.402.203 1.64 1.64 0 01-.57.085 1.77 1.77 0 01-.831-.203 1.907 1.907 0 01-.696-.661c-.202-.305-.36-.712-.478-1.203-.118-.492-.177-1.101-.177-1.822 0-.72.06-1.33.177-1.821.117-.491.276-.898.478-1.203.201-.305.436-.525.696-.66a1.77 1.77 0 01.83-.204 1.622 1.622 0 01.973.288 1.9 1.9 0 01.336.296V1.822c0-.195.067-.356.193-.491a.606.606 0 01.46-.195c.185 0 .336.068.462.195a.695.695 0 01.193.491v2.372a1.546 1.546 0 01.73-.5c.167-.059.36-.084.578-.084.294 0 .57.068.83.203.26.136.495.356.697.66.201.306.36.713.478 1.204.117.491.176 1.101.176 1.821s-.059 1.33-.176 1.822c-.117.491-.277.898-.478 1.203-.201.305-.436.525-.696.66a1.77 1.77 0 01-.83.204 1.672 1.672 0 01-.99-.288 1.346 1.346 0 01-.319-.296v2.414a.636.636 0 01-.193.466.616.616 0 01-.461.186zm-.654-8.27a2.17 2.17 0 00-.294-.33c-.1-.076-.21-.152-.327-.228a.72.72 0 00-.403-.11 1.11 1.11 0 00-.486.101c-.143.068-.26.195-.36.381-.101.187-.177.45-.236.788a8.99 8.99 0 00-.084 1.305c0 .534.026.966.084 1.305.05.338.135.601.235.787a.88.88 0 00.36.382c.143.068.303.101.487.101a.836.836 0 00.403-.101c.117-.068.226-.136.327-.212.11-.093.201-.203.294-.322V5.6zm1.308 3.83c.084.127.184.229.294.322.083.076.192.144.318.212.126.067.26.101.411.101.185 0 .344-.034.487-.101.142-.068.26-.195.36-.382.1-.186.176-.449.235-.787.05-.34.084-.771.084-1.305 0-.534-.025-.966-.084-1.305a2.438 2.438 0 00-.235-.788.88.88 0 00-.36-.38 1.086 1.086 0 00-.487-.103.788.788 0 00-.41.11 2.095 2.095 0 00-.32.23 2.739 2.739 0 00-.293.33V9.43zm6.684-7.557a.708.708 0 01-.226.508.694.694 0 01-.503.23.695.695 0 01-.504-.23.708.708 0 01-.226-.508c0-.186.075-.356.226-.508a.695.695 0 01.504-.23c.184 0 .352.077.503.23a.708.708 0 01.226.508zm-1.384 2.415c0-.187.068-.34.193-.466a.63.63 0 01.462-.187.65.65 0 01.654.653v6.438a.636.636 0 01-.193.466.63.63 0 01-.461.187.616.616 0 01-.462-.187.636.636 0 01-.193-.466V4.288zm2.551 0c0-.187.058-.34.192-.466a.616.616 0 01.462-.187h3.631a.65.65 0 01.654.653.636.636 0 01-.192.465.63.63 0 01-.462.187h-1.166v5.778a.636.636 0 01-.192.466.63.63 0 01-.462.186.616.616 0 01-.461-.186.636.636 0 01-.193-.466V4.94h-1.166a.616.616 0 01-.461-.187.63.63 0 01-.184-.465zm11.037 6.438a.636.636 0 01-.193.466.63.63 0 01-.462.187.616.616 0 01-.46-.187.636.636 0 01-.194-.466V7.727h-2.323v3a.636.636 0 01-.193.465.63.63 0 01-.461.187.616.616 0 01-.462-.187.636.636 0 01-.192-.466V4.288c0-.187.067-.34.192-.466a.63.63 0 01.462-.187.65.65 0 01.654.653v2.118h2.323V4.288c0-.187.059-.34.193-.466a.616.616 0 01.462-.187.65.65 0 01.654.653v6.438zm4.504-.644c.293 0 .536-.093.738-.27.2-.179.343-.382.419-.61a.981.981 0 01.134-.179.805.805 0 01.185-.135.525.525 0 01.268-.06.65.65 0 01.654.653 1.2 1.2 0 01-.017.195c-.008.05-.016.101-.025.135a.885.885 0 01-.025.102 2.376 2.376 0 01-.327.567 2.06 2.06 0 01-.478.458 2.328 2.328 0 01-.654.313 2.922 2.922 0 01-.864.12 2.84 2.84 0 01-1.107-.221 2.3 2.3 0 01-.88-.695c-.244-.313-.437-.72-.571-1.211-.134-.492-.201-1.085-.201-1.771 0-.686.067-1.28.2-1.77.135-.492.328-.899.571-1.212.243-.314.528-.55.856-.695.327-.144.679-.22 1.065-.22.377 0 .73.068 1.057.212.327.144.612.372.855.686.243.313.428.712.57 1.203.135.491.202 1.076.202 1.77a.516.516 0 01-.185.382.542.542 0 01-.402.17h-3.49c.042.728.193 1.253.453 1.575.26.347.596.508.999.508zm1.308-3.363c-.042-.635-.185-1.093-.445-1.372-.26-.28-.57-.416-.939-.416s-.68.136-.94.416c-.26.28-.402.737-.444 1.372h2.768zm4.001.788c0 .5.033.915.1 1.254.067.33.168.601.302.796a1.1 1.1 0 00.462.407c.176.076.369.118.595.118.294 0 .537-.084.738-.254.201-.17.344-.364.42-.576a.909.909 0 01.134-.17 1.17 1.17 0 01.184-.126.525.525 0 01.269-.06c.184 0 .335.06.46.187a.599.599 0 01.194.449 1.2 1.2 0 01-.017.195c-.008.05-.017.101-.025.135-.009.042-.017.068-.025.102-.084.203-.193.39-.327.559-.135.17-.294.322-.478.449a2.459 2.459 0 01-.655.305 2.918 2.918 0 01-.864.119 2.84 2.84 0 01-1.107-.22 2.3 2.3 0 01-.88-.695c-.244-.314-.436-.72-.57-1.212-.135-.491-.202-1.084-.202-1.77 0-.687.067-1.28.201-1.771.135-.492.327-.898.57-1.212a2.19 2.19 0 01.881-.694 2.78 2.78 0 011.107-.22c.31 0 .587.033.822.11.235.076.445.169.63.296.175.127.326.263.444.415.117.153.21.314.293.475l.026.118.025.127c.008.051.017.11.017.187 0 .178-.067.33-.193.457a.616.616 0 01-.462.186.633.633 0 01-.268-.05.58.58 0 01-.184-.119.751.751 0 01-.135-.178.714.714 0 00-.117-.22.973.973 0 00-.227-.229 1.572 1.572 0 00-.31-.178.881.881 0 00-.36-.068c-.227 0-.42.043-.596.119a1.099 1.099 0 00-.461.407c-.135.195-.227.457-.302.796-.076.339-.11.754-.11 1.254zm-76.701 9.76c.176 0 .344.076.495.228a.698.698 0 01.218.509v7.904h.428c.184 0 .344.076.495.229a.698.698 0 01.218.508v2.05a.733.733 0 01-.218.509c-.151.152-.31.228-.495.228a.693.693 0 01-.495-.228.698.698 0 01-.218-.509v-1.169H1.56v1.17a.733.733 0 01-.218.508c-.15.152-.31.228-.495.228a.693.693 0 01-.495-.228.698.698 0 01-.218-.509v-2.05c0-.186.076-.356.218-.508.151-.153.31-.229.495-.229a8.214 8.214 0 00.688-1.694c.168-.619.327-1.424.461-2.44.134-1.009.21-2.262.21-3.77 0-.187.075-.356.218-.509.15-.152.31-.228.495-.228h3.128zm-2.424 1.61c0 1.287-.067 2.371-.201 3.261-.134.89-.277 1.61-.444 2.169-.193.652-.403 1.186-.638 1.593h2.994v-7.024h-1.71zm10.543 7.971a.63.63 0 01-.184.466.61.61 0 01-.454.187.586.586 0 01-.452-.187.63.63 0 01-.185-.466V22.68l-2.424 4.389a1.22 1.22 0 01-.26.296.56.56 0 01-.377.136.598.598 0 01-.453-.187.63.63 0 01-.185-.466V20.41c0-.187.06-.34.185-.466a.61.61 0 01.453-.187c.184 0 .335.068.453.187.126.127.184.28.184.466v4.168l2.424-4.389c.067-.11.151-.203.26-.296a.56.56 0 01.377-.136.63.63 0 01.638.653v6.438zm5.133-3.795c.268.093.503.229.713.407.184.152.344.355.495.601.15.246.218.56.218.932 0 .305-.084.61-.244.915-.159.305-.402.568-.713.805-.31.237-.704.424-1.174.576-.47.152-1.015.22-1.644.22h-.142a.598.598 0 01-.453-.186.623.623 0 01-.185-.458v-6.26a.65.65 0 01.193-.466.977.977 0 01.52-.255l.353-.067c.1-.017.226-.034.36-.051a3.39 3.39 0 01.42-.026c.318 0 .612.051.872.153.26.102.486.237.67.407.185.169.328.372.437.593.1.228.16.466.16.711a1.4 1.4 0 01-.135.644c-.092.186-.184.33-.293.45a1.919 1.919 0 01-.428.355zm-.428-1.322a.609.609 0 00-.21-.491c-.142-.119-.352-.178-.637-.178a2.964 2.964 0 00-.394.042 2.594 2.594 0 00-.168.026v1.415c.503 0 .864-.085 1.09-.246.202-.178.32-.364.32-.568zm-1.426 4.465c.713-.076 1.225-.246 1.535-.508.31-.254.461-.55.461-.881 0-.255-.109-.475-.318-.67-.21-.195-.537-.288-.965-.288h-.713v2.347zm7.121 1.33c-.386 0-.755-.076-1.082-.22a2.192 2.192 0 01-.864-.695c-.243-.313-.428-.72-.562-1.211-.134-.492-.201-1.085-.201-1.77 0-.687.067-1.28.201-1.771.134-.492.319-.899.562-1.212.243-.313.529-.55.864-.695.335-.144.696-.22 1.082-.22.386 0 .746.076 1.082.22.335.144.62.381.864.695.243.313.428.72.562 1.212.134.49.201 1.084.201 1.77 0 .686-.067 1.28-.201 1.77-.134.492-.319.899-.562 1.212-.243.314-.529.55-.864.695-.327.144-.696.22-1.082.22zm0-1.321c.21 0 .403-.043.579-.119.176-.076.327-.212.453-.407.125-.194.226-.457.293-.796.067-.33.1-.754.1-1.254s-.033-.915-.1-1.254c-.067-.33-.168-.601-.293-.796a1.034 1.034 0 00-.453-.407 1.444 1.444 0 00-.579-.118c-.218 0-.411.042-.587.118a1.132 1.132 0 00-.453.407c-.134.195-.227.457-.294.796a6.57 6.57 0 00-.1 1.254c0 .5.033.915.1 1.254.067.33.168.602.294.796.126.195.277.33.453.407.176.085.369.119.587.119zm4.42-2.644c-.184 0-.344-.076-.495-.229a.698.698 0 01-.218-.508c0-.186.076-.356.218-.508.151-.153.31-.229.495-.229h3.422a.69.69 0 01.495.229.698.698 0 01.218.508.732.732 0 01-.218.508c-.15.153-.31.23-.495.23h-3.422zm6.694 5.779a.629.629 0 01-.185.465.61.61 0 01-.453.186.598.598 0 01-.453-.186.629.629 0 01-.185-.466v-8.93c0-.186.059-.338.185-.465a.61.61 0 01.453-.187c.184 0 .335.068.453.212a.758.758 0 01.184.525v.161a1.98 1.98 0 01.428-.449c.142-.11.319-.22.537-.313.218-.093.461-.144.746-.144.319 0 .63.076.923.22.293.153.545.381.771.695.227.313.403.72.537 1.211.134.492.201 1.076.201 1.754 0 .678-.067 1.262-.2 1.754-.135.491-.311.89-.538 1.211-.226.314-.478.55-.771.695a1.95 1.95 0 01-.923.22c-.285 0-.537-.05-.746-.144a2.324 2.324 0 01-.537-.322 1.958 1.958 0 01-.428-.483v2.78zm0-4.135c.1.186.234.356.385.5.126.135.277.245.453.347.176.102.369.153.595.153.21 0 .403-.043.58-.119.175-.076.326-.22.452-.415.126-.195.226-.458.293-.788a6.34 6.34 0 00.101-1.245c0-.492-.033-.907-.1-1.246a2.301 2.301 0 00-.294-.788 1.112 1.112 0 00-.453-.415 1.313 1.313 0 00-.579-.119c-.218 0-.419.051-.595.162-.176.11-.327.228-.453.347-.151.16-.277.33-.386.517v3.109zm8.26.999c.286 0 .529-.093.73-.27.201-.178.336-.382.411-.61.034-.068.084-.128.126-.179a.976.976 0 01.176-.135.493.493 0 01.26-.06.63.63 0 01.638.653 1.966 1.966 0 01-.042.33c-.009.034-.017.077-.026.102a2.668 2.668 0 01-.318.568c-.126.178-.286.33-.47.457a2.244 2.244 0 01-.637.314 2.845 2.845 0 01-.847.118c-.386 0-.755-.076-1.082-.22a2.191 2.191 0 01-.864-.695c-.244-.313-.428-.72-.562-1.211-.135-.492-.202-1.085-.202-1.77 0-.687.067-1.28.202-1.771.134-.492.319-.898.553-1.212.235-.313.52-.55.839-.695.327-.144.671-.22 1.04-.22s.713.068 1.04.212c.327.144.604.373.839.686.235.314.42.712.553 1.203.135.492.202 1.076.202 1.77a.537.537 0 01-.177.382.538.538 0 01-.394.17h-3.422c.042.728.185 1.253.445 1.575.26.356.595.508.99.508zm1.284-3.363c-.042-.635-.185-1.093-.436-1.372a1.194 1.194 0 00-.923-.415c-.36 0-.671.135-.923.415-.251.28-.394.737-.436 1.372h2.718zm4.696-.144c.285 0 .52-.085.713-.245a.728.728 0 00.285-.577c0-.22-.092-.406-.285-.576a1.073 1.073 0 00-.713-.245.961.961 0 00-.352.059 1.199 1.199 0 00-.31.16.752.752 0 00-.218.213.887.887 0 00-.118.203.887.887 0 01-.126.16.894.894 0 01-.176.111.599.599 0 01-.26.042.61.61 0 01-.453-.177.573.573 0 01-.184-.441c0-.076 0-.136.008-.178.009-.042.009-.085.025-.127a.588.588 0 01.042-.11 1.968 1.968 0 01.722-.847 2.14 2.14 0 01.612-.28c.235-.068.503-.102.805-.102a2.498 2.498 0 011.652.585 1.866 1.866 0 01.63 1.398c0 .288-.05.534-.16.729-.1.194-.218.355-.344.482a2.223 2.223 0 01-.495.356c.21.102.403.237.57.407.143.152.277.364.395.618.117.254.176.568.176.95 0 .313-.059.6-.176.88a2.344 2.344 0 01-.495.72 2.2 2.2 0 01-.772.492 2.62 2.62 0 01-.972.186c-.32 0-.604-.042-.848-.119a2.36 2.36 0 01-.637-.313 2.205 2.205 0 01-.47-.457 2.89 2.89 0 01-.318-.568.368.368 0 01-.042-.102 2.075 2.075 0 01-.026-.339.63.63 0 01.185-.466.611.611 0 01.453-.186c.1 0 .193.017.26.06a.747.747 0 01.176.135c.042.05.092.11.126.178.075.22.21.423.41.61.202.178.445.27.73.27.361 0 .638-.1.84-.296.2-.203.301-.466.301-.796s-.1-.602-.302-.796c-.201-.195-.478-.297-.838-.297h-.286a.616.616 0 01-.453-.186.629.629 0 01-.184-.466.63.63 0 01.184-.466.61.61 0 01.453-.187h.26v-.059zm5.276 4.228l-1.92-6.075c-.018-.05-.034-.093-.043-.135a1.43 1.43 0 01-.025-.238c0-.22.059-.406.176-.533a.51.51 0 01.394-.195c.126 0 .227.025.31.076.084.051.152.102.202.144a.65.65 0 01.126.22l1.426 4.592 1.425-4.592a.65.65 0 01.126-.22.954.954 0 01.193-.144.592.592 0 01.319-.076c.142 0 .277.068.394.195.117.135.176.313.176.534 0 .042-.008.076-.017.118-.008.043-.016.076-.025.119-.008.042-.017.084-.025.135l-2.717 8.71a.522.522 0 01-.126.22.633.633 0 01-.201.152.7.7 0 01-.31.068.537.537 0 01-.395-.195c-.117-.135-.176-.313-.176-.534a1.5 1.5 0 01.025-.237c.008-.042.025-.084.042-.135l.646-1.974zm4.344.457c-.05.026-.091.051-.142.068a.728.728 0 01-.352.068.548.548 0 01-.394-.178.558.558 0 01-.176-.398c0-.085.016-.17.05-.263.033-.093.075-.161.117-.229.05-.076.11-.152.185-.229.126-.143.26-.321.42-.542.159-.22.301-.533.444-.949.142-.415.251-.974.352-1.66.092-.695.143-1.584.143-2.677 0-.187.058-.34.184-.458a.61.61 0 01.453-.186h2.567a.63.63 0 01.637.652v6.439a.63.63 0 01-.185.466.61.61 0 01-.453.186.598.598 0 01-.452-.186.629.629 0 01-.185-.466v-5.778H61.47c0 1.144-.067 2.101-.21 2.864-.142.762-.31 1.38-.511 1.847-.202.465-.412.83-.63 1.075-.226.255-.419.433-.578.534zm7.121.128a.598.598 0 01-.453-.187.63.63 0 01-.184-.466v-6.439c0-.186.059-.339.184-.466a.61.61 0 01.453-.186c.185 0 .336.068.453.186a.63.63 0 01.185.466v2.05a9.21 9.21 0 01.428-.05 2.876 2.876 0 011.35.17c.319.118.587.296.813.507.227.22.395.483.512.788.117.305.176.644.176 1 0 .33-.084.652-.243.966a2.57 2.57 0 01-.713.838c-.31.246-.704.45-1.174.602-.47.152-1.015.229-1.627.229h-.16v-.009zm.646-1.314c.713-.076 1.225-.246 1.535-.508.31-.263.461-.585.461-.95a.949.949 0 00-.318-.728c-.21-.195-.537-.296-.965-.296-.1 0-.201.008-.285.017a8.696 8.696 0 00-.428.05v2.415zm3.413-5.786c0-.187.06-.34.185-.466a.61.61 0 01.453-.187h3.565a.63.63 0 01.637.653.63.63 0 01-.184.466.61.61 0 01-.453.186h-1.141v5.778a.629.629 0 01-.184.466.61.61 0 01-.453.186.585.585 0 01-.453-.186.629.629 0 01-.185-.466v-5.778h-1.14a.585.585 0 01-.453-.186.623.623 0 01-.193-.466zm10.191 6.455a.597.597 0 01-.184.458.61.61 0 01-.453.186.565.565 0 01-.453-.212.793.793 0 01-.185-.516v-.161a1.84 1.84 0 01-.427.457c-.143.11-.32.212-.537.305-.21.093-.462.136-.747.136a1.83 1.83 0 01-1.425-.636c-.378-.423-.57-1.042-.57-1.855 0-.364.058-.695.175-1 .118-.305.285-.567.495-.788.21-.22.47-.39.763-.508a2.6 2.6 0 01.982-.186 3.123 3.123 0 01.906.118c.134.043.26.076.369.102v-.695a.924.924 0 00-.328-.72c-.218-.195-.486-.288-.813-.288-.134 0-.26.008-.37.034-.117.025-.217.05-.31.085-.1.034-.21.076-.31.127a.279.279 0 01-.1.034c-.076.017-.16.025-.26.025a.527.527 0 01-.395-.186.616.616 0 01-.176-.45c0-.084.025-.16.067-.237a.77.77 0 01.151-.177.791.791 0 01.21-.153 5.66 5.66 0 01.453-.212c.134-.05.293-.093.47-.144.176-.05.369-.068.57-.068.352 0 .68.06.973.178.293.119.553.288.771.5.21.212.378.475.495.78.118.305.176.627.176.982v4.685h.017zm-1.283-2.778a4.122 4.122 0 01-.37-.102c-.117-.026-.25-.06-.402-.085a3.194 3.194 0 00-.503-.034c-.36 0-.637.102-.839.305-.2.204-.302.492-.302.864 0 .373.093.661.286.865a.94.94 0 00.712.305c.219 0 .412-.051.58-.153a2.35 2.35 0 00.452-.356c.143-.144.277-.313.403-.508v-1.101h-.017zm2.139-3.677c0-.187.058-.34.184-.466a.61.61 0 01.453-.187h3.565a.63.63 0 01.637.653.63.63 0 01-.184.466.61.61 0 01-.453.186h-1.141v5.778a.629.629 0 01-.185.466.61.61 0 01-.453.186.585.585 0 01-.452-.186.629.629 0 01-.185-.466v-5.778h-1.14a.585.585 0 01-.453-.186.593.593 0 01-.193-.466z" fill="#fff"/></svg>