<svg width="443" height="298" fill="none" xmlns="http://www.w3.org/2000/svg"><path d="M0 162.15c.666-.579.695-1.42.956-2.174.695-1.943 1.535-3.886 1.999-5.887.608-2.667.637-5.451.84-8.177.231-2.986.521-5.973.637-8.989.174-4.32.869-8.583.985-12.903.029-1.566.29-3.132.463-4.669.464-4.146.696-8.351 1.304-12.468.724-4.988 1.39-9.975 2.375-14.905 1.651-8.322 3.708-16.528 7.01-24.357 1.565-3.74 3.216-7.481 6.257-10.352 1.796-1.682 3.94-2.726 6.142-3.77 4.374-2.116 8.98-3.77 13.122-6.379 2.346-1.508 4.229-3.508 5.648-5.915.522-.87.58-1.74.32-2.784-.349-1.42-.493-2.928-.493-4.407 0-1.48-.29-2.813-1.043-4.089-.753-1.276-1.39-2.61-2.086-3.915-.84-1.536-.492-2.696 1.159-3.363.521-.203.492-.406.405-.841-.608-2.639-1.216-5.248-1.796-7.887-1.013-4.524 1.507-9.018 5.736-11.25C52.142 1.508 54.517.985 56.95.58 58.485.32 59.992.03 61.556 0c4.113-.058 8.11.696 11.848 2.262 3.881 1.624 6.199 4.756 6.894 8.96.203 1.247-.348 2.494-.608 3.74-.435 2.204-1.014 4.35-1.507 6.554-.087.377-.405.87.319 1.13 1.535.58 1.999 1.74 1.275 3.22-.87 1.74-1.825 3.45-2.781 5.132-.261.464-.435.899-.435 1.42.058 2.379 0 4.727-.84 7.018-.26.696.232 1.334.55 1.885 1.565 2.813 3.853 4.93 6.605 6.524a80.87 80.87 0 0012.63 5.916c5.069 1.855 8.227 5.596 10.457 10.322 2.81 6.003 4.838 12.266 6.489 18.703 1.13 4.466 2.172 8.96 2.897 13.513.753 4.668 1.448 9.337 1.854 14.063.318 3.625.898 7.22 1.216 10.845.29 3.161.522 6.321.84 9.482.377 3.799.666 7.597.84 11.396.116 2.928.522 5.799.551 8.757 0 2.841 1.332 5.393 2.143 8.061.319 1.044.753 2.059 1.13 3.102.203.522.145.986-.058 1.479-.406 1.044-1.101 2.001-1.999 2.378-2.491 1.015-3.997 3.248-6.054 4.756a34.135 34.135 0 01-3.708 2.435c-.898.493-1.883.464-2.839.087-1.448-.58-2.578-1.624-3.621-2.725-.637-.667-.811-1.421-.086-2.262.637-.725 1.1-1.566.26-2.552-.231-.261-.753-9.366-.637-9.685.463-1.305 1.072-2.523 1.941-3.537 2.143-2.465 2.549-5.104 1.68-8.236-1.014-3.595-1.622-7.336-2.52-10.989-.956-3.915-1.999-7.8-2.984-11.686-.811-3.161-1.738-6.292-2.868-9.337-.202-.58-.434-1.16-.782-2.059-.29 1.102.03 1.769.174 2.436.898 4.147 1.304 8.351 1.159 12.614-.029 1.188.463 2.232.724 3.334.579 2.407 1.448 4.872.55 7.336-.55 1.479-.55 2.726.203 4.089.464.841.406 1.827.203 2.755-.377 1.536-.319 3.102-.29 4.668.029 1.044-.261 2.059-.985 2.813-.521.551-.695 1.131-.695 1.827-.029 4.233-.666 8.438-1.188 12.613-.405 3.277-.81 6.553-1.448 9.772-.782 4.118-1.71 8.177-2.694 12.237-1.42 5.886-3.042 11.714-4.374 17.601-1.014 4.436-1.97 8.96-.927 13.57.927 4.118.724 8.322.84 12.498.087 4.291-.348 8.525-.927 12.759-.58 4.146-1.622 8.206-2.868 12.207-1.39 4.437-2.549 8.931-3.418 13.513-.637 3.334-1.1 6.669-1.912 9.946-1.274 5.132 2.144 9.83 5.33 11.946 1.159.754 2.405 1.479 3.042 2.813.58 1.218.26 1.943-1.043 2.262-.174.029-.434 0-.492.087-1.014 1.913-3.216.87-4.606 1.884-.522.377-1.333.261-1.97.029-.55-.202-.898-.116-1.159.377h-8.14c-.666-1.159-1.825-2.029-2.027-3.45-.087-.696-.435-.957-1.072-1.218-1.13-.406-1.999-1.16-2.028-2.494-.058-2.406.58-4.697 1.304-6.93.608-1.827 1.158-3.683 1.043-5.567-.29-4.64-.696-9.279-1.16-13.919-.578-5.741-.781-11.483-1.129-17.224-.29-5.045.435-10.062.811-15.078.464-6.206-.26-12.237-1.825-18.21-1.245-4.698-2.288-9.482-2.723-14.296-.463-4.871-.666-9.801-.81-14.701-.146-4.901-.754-9.801-.61-14.73.03-.551 0-1.131-.579-1.798-.202 2.667-.52 5.045-.579 7.423-.116 6.553-.724 13.107-.869 19.66-.058 2.03-.319 4.059-.58 6.06-.666 5.162-1.795 10.265-3.128 15.281-1.072 4.031-1.361 8.091-1.216 12.208.115 4.089.579 8.206.637 12.295.116 5.538.029 11.076-.406 16.644-.434 5.944-1.1 11.889-1.535 17.833-.174 2.349-.608 4.784.493 7.017.926 1.885.956 3.915 1.39 5.886.463 2.059.29 4.147-2.317 4.872-.174.058-.348.261-.406.464-.377 1.566-1.245 2.842-2.288 4.03h-8.14c-.26-.522-.608-.551-1.159-.377-.869.261-1.767.232-2.578-.29a2.002 2.002 0 00-1.448-.318c-1.71.203-2.492-1.508-3.94-1.885-.434-.116-.405-.841-.232-1.363.464-1.421 1.593-2.233 2.752-2.871 2.636-1.45 4.085-3.885 5.388-6.408.637-1.247 1.13-2.668.811-4.176-.434-1.971-.724-3.972-1.072-5.973-.956-5.596-2.23-11.106-3.736-16.586-.898-3.219-2.057-6.379-2.723-9.656a97.479 97.479 0 01-1.767-13.281 77.568 77.568 0 01.405-15.339c.174-1.305.55-2.552.608-3.885.145-3.886-.318-7.656-1.216-11.454-.927-3.915-1.999-7.771-2.984-11.686-.956-3.856-1.825-7.742-2.694-11.628a169.534 169.534 0 01-2.143-11.453 209.344 209.344 0 01-1.13-8.409c-.377-3.277-.608-6.583-.898-9.859-.029-.406-.058-.725-.348-.957-.81-.667-.927-1.595-1.014-2.523-.173-2.204-.81-4.523-.29-6.553.696-2.61.233-4.988 0-7.51-.202-2.088.551-4.089 1.13-6.09.32-1.073.522-2.087.493-3.218-.058-2.32-.087-4.64.319-6.96.347-2.029.55-4.088.81-6.118-.492.87-.84 1.769-1.187 2.697-1.217 3.247-2.057 6.611-2.868 10.004-1.043 4.262-2.317 8.496-3.215 12.787-.609 2.842-1.159 5.713-1.941 8.525-.666 2.349-.174 4.321 1.217 6.177.405.551.84 1.073 1.216 1.623.927 1.392 1.68 2.842 1.507 4.611-.203 2.117-.55 4.205-.464 6.321.03.667 0 1.421-.405 1.972-.667.87-.29 1.653.318 2.088 1.188.899.724 1.624 0 2.407-.405.377-.753.753-1.13 1.101-1.97 1.798-3.91 2.262-5.648 1.334-.84-.464-1.622-1.073-2.433-1.595-2.55-1.536-4.085-4.436-7.097-5.422-.406-.116-.725-.58-1.014-.957-.435-.58-.782-1.189-1.188-1.798v-1.015zm10.718 3.393c0 1.131.405 1.363 1.274.899.667-.348 1.246-.87 2-.029.173.203 1.071-.058 1.477-.319.434-.261-.058-.667-.203-.957-.29-.667-.55-1.305-.608-2.059-.058-1.13-.174-2.261-.261-3.392-.03-.348 0-.754-.377-.841-.434-.116-.55.319-.724.58-.753 1.073-1.159 2.349-1.622 3.566-.377.87-.87 1.74-.956 2.552zm102.632.116c-.145-.464-.232-1.044-.464-1.595a157.616 157.616 0 00-1.709-3.943c-.231-.493-.434-1.276-.985-1.189-.637.116-.579.957-.579 1.508-.029 1.595.058 3.218-.84 4.668-.145.261-.55.667-.145.87.464.232 1.159.783 1.477.435.812-.841 1.362-.232 1.999.058.753.406 1.217.232 1.246-.812zM158.395 298c-.58-.609-1.304-.928-2.144-.899-1.361.029-2.23-1.073-3.302-1.624-.724-.377-.348-1.305.029-1.942.376-.667.985-1.16 1.651-1.566 4.751-2.929 6.662-7.279 6.257-12.701-.29-3.741-.579-7.51-1.39-11.193-.87-3.943-2.202-7.742-3.361-11.569-1.97-6.409-3.36-12.904-2.752-19.631.435-4.785 1.043-9.598 2.057-14.325.579-2.754.464-5.538.435-8.351 0-1.826-.116-3.624.376-5.422.435-1.624-.174-3.19-.579-4.727-1.217-4.523-1.941-9.163-2.694-13.802-.608-3.799-1.072-7.626-1.333-11.454-.55-7.858-.608-15.745-.318-23.632.26-6.379.985-12.73 1.245-19.109.116-3.19 1.362-6.176 2.202-9.25.434-1.537.637-3.016.261-4.495-.725-2.725-.145-5.335.637-7.858.84-2.754.55-5.625.956-8.409.231-1.479-.551-2.899-.898-4.32-.377-1.45-.493-2.929-.145-4.408.058-.232.145-.58.029-.725-1.043-1.42-1.825-2.986-2.723-4.61-.493 1.827-.985 3.624-1.419 5.451-1.362 5.626-2.897 11.222-4.433 16.818a26.015 26.015 0 00-.926 7.163c.057 6.089-1.739 11.772-3.679 17.427-.956 2.754-1.767 5.538-1.999 8.496-.203 2.261.492 4.262 1.477 6.205.609 1.218 1.275 2.378 1.709 3.683.406 1.246.464 2.493.116 3.74-.434 1.595-.145 3.219-.203 4.814-.029.58.145 1.305-.231 1.739-.869.986-.319 1.653.289 2.378.435.522.406 1.044.116 1.653-1.941 3.944-4.055 4.408-7.242 1.45-.637-.609-1.187-1.334-1.738-2.03-.985-1.189-1.854-2.436-3.215-3.335-1.391-.898-2.028-2.435-1.535-4.233.956-3.567 1.883-7.104 2.694-10.7.811-3.682.434-7.423.289-11.135a109.815 109.815 0 010-9.772c.145-3.595.551-7.162 1.043-10.728.377-2.639.956-5.22 1.42-7.859.782-4.581 1.911-9.047 1.332-13.802-.521-4.175.232-8.351 1.304-12.44.637-2.377 1.274-4.755 1.767-7.162.463-2.204-.261-4.378-.522-6.553-.84-6.553 3.245-13.57 9.444-16.006 1.998-.783 4.171-.754 6.083-1.653 1.477-.696 3.07-.899 4.635-1.189 5.127-.986 8.168-4.147 9.704-8.989.058-.203.087-.406.173-.609.667-1.392.464-2.523-.84-3.509-1.68-1.246-1.825-3.19-1.882-5.074-.029-1.015-.232-1.798-.927-2.639-1.333-1.624-1.767-3.74-2.521-5.654-.347-.87.174-1.798 1.014-2.262.695-.406.695-.84.551-1.479l-1.565-7.568c-.869-4.291 1.883-8.93 6.402-10.845 1.622-.667 3.302-1.102 5.041-1.102 3.128 0 6.285-.405 9.356.145 5.504.986 10.341 4.785 9.588 11.454-.318 2.726-1.014 5.394-1.506 8.09-.116.58-.174.957.521 1.334 1.043.551 1.362 1.914.754 3.132-.956 1.885-1.304 4.03-2.81 5.683-.551.61-.493 1.624-.435 2.465.087 1.682-.405 3.132-1.68 4.204-1.303 1.073-1.419 2.204-.956 3.799 1.246 4.089 3.447 7.278 7.561 8.786 1.448.522 2.983.87 4.548 1.102 1.911.29 3.62 1.363 5.561 1.624 4.577.667 7.851 3.276 10.168 7.075 1.999 3.306 2.926 6.843 2.057 10.816-.869 4.06.029 8.06 1.187 12.004 1.536 5.19 2.202 10.526 1.391 15.92-.377 2.522.405 4.871.811 7.278.463 2.842 1.072 5.654 1.564 8.467.348 1.943.55 3.915.84 5.886.84 5.365 1.014 10.787.956 16.209-.029 2.059-.463 4.031-.55 6.061-.145 4.001.869 7.8 1.854 11.599.434 1.768.956 3.508 1.39 5.277.521 2.059-.174 3.683-1.912 4.842-1.303.87-2.143 2.146-3.099 3.335-1.043 1.334-2.144 2.639-3.65 3.451-.145.087-.29.203-.435.232-1.825.406-2.781-.928-3.795-2.03-.724-.812-1.448-1.74-.608-2.929.58-.812.811-1.653.145-2.552-.116-.174-.203-.405-.203-.579-.087-2.842-.174-5.655-.203-8.497 0-1.623.956-2.957 1.623-4.378.985-2.117 2.027-4.205 1.738-6.669-.377-3.393-1.333-6.641-2.492-9.83-2.056-5.568-3.302-11.251-3.36-17.224-.029-3.654-1.072-7.163-2.085-10.671-1.362-4.698-2.492-9.482-3.737-14.237l-.869-3.393c-.522.058-.493.406-.58.667-.202.55-.26 1.218-.637 1.653-1.535 1.74-1.622 3.798-1.477 5.915.145 1.74-.869 3.248-1.072 4.929-.058.609-.145 1.16 0 1.769.203 1.044.319 2.059.145 3.161-.29 1.885.753 3.537 1.101 5.306.463 2.465.898 4.872.231 7.394-.521 1.972.203 3.886.811 5.713 1.623 4.842 1.999 9.83 2.144 14.875.145 4.263.637 8.525.782 12.788.203 6.756.145 13.541-.203 20.326-.26 4.814-.811 9.627-1.477 14.383-.579 4.088-1.275 8.177-2.346 12.179-.638 2.319-1.188 4.668-.638 7.133.551 2.464.058 4.987.029 7.481-.029 2.436.609 4.784 1.014 7.133.666 3.886 1.333 7.742 1.535 11.686.116 2.581.232 5.161 0 7.742-.289 3.422-1.158 6.756-2.085 10.033-1.159 4.117-2.665 8.119-3.592 12.324-.84 3.798-1.333 7.655-1.564 11.54-.116 2.117-.58 4.176.029 6.293.84 2.899 2.462 5.248 4.924 6.988.782.551 1.651 1.015 2.317 1.769 1.13 1.333.58 1.913-.608 2.957-1.39 1.247-3.418.435-4.519 1.914h-10.167c-.725-1.189-1.623-2.262-1.97-3.654-.029-.145-.29-.319-.464-.377-2.172-.811-2.549-2.609-1.883-4.697 1.652-5.132 2.781-10.381 3.013-15.774.232-5.568-.232-11.106-.869-16.615-.927-7.917-.782-15.804 0-23.72.261-2.696.492-5.451-.319-8.09-1.651-5.335-2.346-10.816-2.433-16.383-.029-1.653-.29-3.306-.608-4.901-.724-3.914-1.217-7.858-1.593-11.801-.348-3.741-.58-7.51-.956-11.251-.319-3.161-.319-6.321-.174-9.511.145-2.697.087-5.422.087-8.148 0-.377 0-.783-.435-.986-1.332-.609-2.317.058-2.346 1.566-.145 6.901.29 13.802-.406 20.704-.434 4.552-.956 9.076-1.477 13.628-.435 3.828-1.246 7.597-1.419 11.454-.203 4.233-.493 8.438-1.652 12.555-.811 2.9-1.593 5.829-1.361 8.873.348 4.176.724 8.352.869 12.556.116 3.741-.087 7.452-.29 11.164-.231 4.088-1.071 8.148-1.1 12.265-.029 3.335-.029 6.699.029 10.033.028 1.856.376 3.683.811 5.51.637 2.754 1.738 5.393 2.056 8.235.174 1.653-.347 2.581-1.796 3.247-.347.145-.753.232-.84.667-.318 1.363-1.187 2.407-2.027 3.48-3.39-.029-6.692-.029-9.994-.029zm-18.018-134.864c-.029-.58-.058-1.189-.116-1.769-.029-.203-.087-.435-.319-.493-.26-.058-.405.116-.492.319-.84 2.03-1.593 4.118-1.912 6.292-.116.783.261 1.015.985.551.377-.232.869-.696 1.246-.232.347.435.55.377.898.145.492-.29.376-.667.202-1.101-.434-1.16-.55-2.436-.492-3.712zm75.953.145c.174 1.218-.348 2.494-.724 3.798-.116.348-.174.667.173.899.232.145.551.464.754.145.521-.783 1.042-.29 1.506-.029.782.435.898.174.898-.58 0-1.797-.985-3.305-1.304-4.987-.116-.58-.376-1.595-.927-1.479-.84.145-.347 1.131-.405 1.74.029.058.029.203.029.493zm40.902-58.864c-1.304 4.495-2.752 8.96-3.853 13.513-.666 2.726-.753 5.596-1.188 8.409-.608 3.973-1.303 7.916-2.259 11.802-1.246 5.074-2.26 10.236-3.65 15.281-.782 2.784-.58 5.161 1.101 7.539 1.013 1.421.984 3.19.608 4.785-.406 1.682-.406 3.363-.319 5.045.058 1.044-.26 1.972-.347 2.987-.087 1.102-1.217 1.45-2.086 1.856-.956.464-1.217.956-.406 1.797.232.232.377.551.493.87.145.406.29.841-.087 1.189-.406.348-.84.145-1.159-.087-2.259-1.508-4.461-3.102-6.286-5.103-1.071-1.189-2.259-2.262-3.36-3.422-1.419-1.479-2.086-2.958-1.361-5.016 1.042-2.9 1.825-5.916 3.012-8.786.145-.377.29-.812.29-1.218-.145-2.929.232-5.829.434-8.757.203-3.509.377-7.017.667-10.526.405-4.669 1.014-9.308 1.767-13.948.405-2.377 1.1-4.697 1.912-6.959.347-.957.521-1.943.637-2.957.376-3.19.811-6.38 1.188-9.569.492-4.32.926-8.641 1.419-12.962.261-2.146.579-4.263.927-6.408.521-3.16 1.072-6.322 1.912-9.424 1.564-5.713 5.127-9.598 10.544-11.889 2.201-.928 4.519-1.595 6.547-2.987 1.129-.754 2.636-.812 3.939-1.304 4.142-1.48 6.083-4.553 6.634-8.67.26-1.943-.435-3.857-.551-5.8-.145-2.813-1.419-5.161-2.838-7.481-.696-1.13-1.333-2.29-.609-3.683.203-.405.029-.811-.116-1.217-.695-2.35-1.274-4.727-1.158-7.22.347-6.64 4.519-12.005 11.355-13.455 3.331-.696 6.72-.696 9.965-.29 6.315.754 11.036 3.856 12.716 10.96.725 3.103.435 6.322-.521 9.396-.29.899-.579 1.768.029 2.667.348.551.058 1.073-.203 1.566-.753 1.392-1.477 2.755-2.259 4.118-.464.783-.84 1.595-.898 2.493-.174 2.378-.985 4.669-.927 7.047.087 3.77 1.448 6.959 4.953 8.786 1.478.783 3.013 1.508 4.722 1.74 1.13.145 1.97 1.072 3.013 1.536 2.549 1.102 5.272 1.914 7.618 3.45 3.476 2.292 5.938 5.423 7.126 9.425 1.014 3.421 1.593 6.901 2.173 10.41.637 3.827.956 7.713 1.564 11.54.463 2.958.521 5.974.927 8.96.666 4.843.898 9.743 2.665 14.412.927 2.436 1.13 5.103 1.622 7.684.608 3.19.84 6.466 1.072 9.685.26 3.422.579 6.814.608 10.265.058 5.857.637 11.657 3.042 17.137.463 1.073.782 2.233 1.043 3.393.347 1.478-.406 2.638-1.362 3.624-1.101 1.102-2.259 2.175-3.273 3.364-1.854 2.146-4.23 3.624-6.489 5.248-.435.319-.985.667-1.506.145-.493-.522.029-1.015.231-1.508.203-.58 1.159-.899.898-1.536-.173-.435-.927-.696-1.419-.986-2.028-1.16-2.057-3.161-1.912-5.075.116-1.508.087-3.015-.319-4.407-.608-2.233-.115-4.176 1.043-5.916 1.188-1.768 1.333-3.537.84-5.538-1.477-6.031-2.838-12.092-4.287-18.123-1.245-5.19-1.883-10.468-2.52-15.745-.521-4.176-2.057-8.09-3.244-12.121-.435-1.537-.869-3.045-1.333-4.697-.724 2.406.464 4.262 1.275 6.147 1.854 4.32 2.375 8.902 2.752 13.483.116 1.566-.261 3.219-.58 4.785-.173.841-.231 1.537.116 2.32.84 1.855.811 3.769.203 5.683-.145.464-.145.899.058 1.363.55 1.247.55 2.523.608 3.856.145 2.639.406 5.307.869 7.917 1.043 5.77 1.217 11.598.956 17.456-.174 3.798-.492 7.597-1.014 11.366-.463 3.248-1.39 6.438-2.375 9.598-2.433 7.858-6.402 15.021-10.255 22.212-1.274 2.378-.955 4.755-.782 7.191.29 4.35 1.275 8.641 1.072 13.02-.203 4.784-.666 9.539-1.506 14.237-1.188 6.785-2.955 13.454-4.432 20.182-.869 3.914-2.057 7.771-2.955 11.685-.637 2.784-.116 5.423 1.391 7.917 1.274 2.058 2.722 3.885 4.837 5.103a6.018 6.018 0 012.028 1.885c.724 1.102.376 2.088-.869 2.465-.464.145-.869.318-1.159.724-.116.174-.319.377-.492.377-1.738-.087-3.303.841-5.041.928-1.854.087-3.736-.261-5.59.232-2.376.638-4.317-.348-5.157-2.551-.376-.986-1.071-1.508-1.796-2.204-1.303-1.276-1.882-.899-3.099.058-.782.638-1.42 1.16-1.767 2.088-.927 2.377-3.013 3.334-5.446 2.551-.637-.203-1.217-.29-1.854-.058-.145.058-.348.145-.492.087-1.767-.551-3.679.174-5.417-.638-.232-.116-.493-.232-.725-.203-1.738.348-2.693-1.16-4.084-1.652-.84-.319-.782-1.45-.029-2.407.695-.87 1.622-1.479 2.52-2.117 3.245-2.378 5.388-5.451 5.707-9.598.116-1.421-.522-2.726-.84-4.088-1.738-7.279-3.708-14.528-5.33-21.806-1.246-5.567-2.376-11.135-2.81-16.876-.261-3.567-.348-7.104-.348-10.642 0-1.74.406-3.422.58-5.161.202-2.146.26-4.321.579-6.438.174-1.189-.087-2.261-.608-3.305-2.289-4.582-4.896-9.018-6.981-13.687-2.26-5.045-4.143-10.178-5.33-15.6-1.594-7.278-1.825-14.672-1.767-22.096.028-3.827.492-7.597 1.187-11.337.319-1.74.522-3.538.551-5.307.058-1.798.086-3.566.695-5.248a2.404 2.404 0 00.029-1.624c-.609-1.885-.522-3.741.26-5.567.348-.841.406-1.624.058-2.465-.26-.638-.173-1.334-.231-2.001-.435-6.466.782-12.643 3.505-18.5.521-.899.521-1.189.174-3.074zM287.01 160.7c-.319 5.22-.232 10.41-.405 15.63-.232 7.713-.261 15.426-.377 23.139 0 .58-.058 1.189-.145 1.769-.463 3.595-.463 7.191-.232 10.787.116 1.971-.058 3.885-.376 5.799-.608 3.625-1.535 7.191-1.217 10.932.319 3.972.522 7.945.695 11.917.261 6.061-.289 12.121-.521 18.152-.145 3.944-.55 7.859-.637 11.802-.087 4.379 1.043 8.583 2.201 12.788.319 1.102.667 2.174 1.014 3.276.753-1.711 1.159-3.421 1.738-5.074.58-1.711.232-3.538.753-5.22.493-1.623.493-3.247.522-4.9.058-2.175-.203-4.321-.29-6.466-.174-4.263-.203-8.554-.608-12.817-.638-6.698-.145-13.367.26-20.037.203-3.073.406-6.176-.144-9.25-.696-3.943-1.623-7.887-1.304-11.946.116-1.334.406-2.668.232-4.06-.406-3.45-.464-6.93-.637-10.381-.29-6.292-.029-12.613-.319-18.935-.232-5.422-.174-10.844-.261-16.267.087-.203.058-.435.058-.638zm-41.134 12.324c.087-.232.174-.319.145-.377-1.303-1.74-1.738-3.712-1.651-5.857.029-.522-.232-.899-.753-1.015-.609-.145-1.13.087-1.304.696-.55 1.884-1.043 3.769-1.129 5.886.869-.348 1.651-.928 2.375-.029.058.058.261.029.347-.029.898-.667 1.507-.174 1.97.725zm82.5-.957c1.072-.29 2.027.754 3.041-.203.348-.319.869.551 1.478.406-.29-1.566-.493-3.045-.869-4.495-.232-.84-.116-2.232-1.594-1.971-1.303.232-1.1 1.536-1.042 2.406.115 1.392-.377 2.552-1.014 3.857zm65.235-157.511c3.65-.29 7.097.29 10.138 2.494 3.361 2.407 5.012 5.77 5.301 9.83.203 2.726.029 5.422-.84 8.032-.144.435-.289.957-.058 1.363.609 1.102.261 2.059-.376 2.987-1.767 2.61-2.028 5.538-2.173 8.583-.145 3.363-.695 6.727-1.187 10.062-.145 1.015-.058 2.03-.261 3.015-.087.406.203.754.521.957 1.652.928 3.158 1.972 5.099 2.552 3.186.957 6.604 1.624 9.443 3.712 3.129 2.32 4.693 5.48 5.33 9.191.869 4.959 1.333 9.975 1.854 14.963.261 2.436.521 4.9.724 7.307.319 3.886.753 7.742.927 11.628.145 2.725.869 5.335 1.622 7.916 2.202 7.51 4.403 15.02 6.692 22.501 1.39 4.524 2.983 8.989 4.432 13.513.753 2.32 1.448 4.697 1.97 7.075.376 1.595.115 3.132-1.072 4.495-2.231 2.551-3.998 5.48-6.663 7.626-.666.522-1.361 1.653-2.201 1.044-.869-.609.116-1.508.434-2.204.29-.609.261-.957-.318-1.392-1.97-1.421-2.492-3.393-1.999-5.712.29-1.45-.087-2.871-.261-4.292-.29-2.204.029-4.204.985-6.176.145-.319.319-.609.435-.928.811-1.943 1.042-3.77-.174-5.77-2.752-4.582-5.33-9.25-7.908-13.919-2.549-4.581-4.114-9.54-5.214-14.672-1.043-4.93-2.55-9.743-4.085-14.528-.348-1.073-.608-2.203-.927-3.305-.087-.29-.058-.638-.405-.725-.406-.087-.58.29-.783.551-.955 1.421-1.651 3.015-1.825 4.697-.347 3.48-.492 7.017.203 10.497.174.841.464 1.624.869 2.378 2.347 4.349 4.085 8.931 5.649 13.599.637 1.885 1.564 3.683 1.912 5.626a263.81 263.81 0 011.709 10.641c.579 4.06.724 8.178.782 12.295.145 7.887-1.101 15.6-3.447 23.111a734.377 734.377 0 00-5.33 17.746c-.84 2.928-1.651 5.828-1.188 8.96.406 2.638-.203 5.364-.579 7.945-.406 2.638.058 5.161.29 7.684.405 4.871.492 9.714.289 14.585-.405 8.931-2.897 17.456-5.069 26.068-.522 2.059-1.333 4.06-1.506 6.148-.464 5.422.434 10.496 5.214 14.005.753.551 1.506 1.16 1.912 2.001.434.87.231 1.421-.638 2.088-1.303.986-2.867 1.363-4.258 1.652-1.246.261-2.781 1.044-4.171.203-.29-.174-.522-.116-.811.029-2.492 1.102-3.737-.145-4.577-1.913-.406-.87-.666-1.74-1.709-2.204-.695-.319-1.043-1.102-1.043-1.914 0-.551-.029-1.102.058-1.653.666-3.218.956-6.524 2.057-9.656.55-1.565.666-3.218.666-4.871 0-5.336-.058-10.671-.377-16.006-.145-2.436-.492-4.872-.637-7.308-.116-2.116.029-4.262.348-6.321.463-3.189.753-6.379.695-9.598-.029-2.117-.029-4.233-.029-6.35 0-1.508-.174-2.929-.638-4.379-.753-2.348-.84-4.784-.753-7.249.145-5.248 1.188-10.439.811-15.716-.318-4.785-.231-9.569-.173-14.353.029-3.306.405-6.583.463-9.888.058-4.35-.348-8.699-.898-13.02-.116-1.015-.058-2.03-.145-3.045-.087-1.043-.521-1.623-1.709-1.478-.869.116-1.767.029-2.665.029-1.477-.029-1.97.406-2.056 1.855-.203 3.074-.348 6.148-.667 9.221-.434 4.06-.318 8.119-.058 12.179.348 5.306.464 10.584.174 15.861-.261 4.785.029 9.569.464 14.325.376 4.117.579 8.264-.754 12.323-.405 1.218-.405 2.465-.376 3.77.087 1.972-.145 3.972-.174 5.973 0 3.248.435 6.496.84 9.714.377 2.987.551 6.031.058 8.989-.434 2.581-.348 5.162-.579 7.713-.435 4.553-.029 9.134-.145 13.716-.058 2.668.869 5.248 1.709 7.771.232.696.348 1.392.087 2.117-.232.58-.029 1.16.087 1.739.231 1.044.463 2.059.521 3.132.029 1.276-.405 2.291-1.593 2.784-.753.319-.753.957-.985 1.537-.753 1.971-1.883 3.102-3.505 2.551-1.535-.522-3.129.638-4.49-.493-1.564.928-2.723-.695-4.171-.695-.985 0-1.767-.928-2.492-1.537-.55-.464-.231-1.218.174-1.74.435-.58.927-1.131 1.507-1.537 3.244-2.233 4.779-5.393 5.127-9.221.116-1.276.347-2.523.782-3.712.174-.463.145-.898 0-1.362-1.477-5.568-2.984-11.106-4.229-16.732-1.188-5.393-2.289-10.815-2.52-16.383-.261-5.944.173-11.83.811-17.717.202-1.827-.174-3.653-.377-5.451-.232-1.972-.521-3.973-.348-5.944.319-3.857-.695-7.453-1.825-11.077-2.288-7.394-4.663-14.789-6.488-22.299-1.738-7.162-1.912-14.469-1.507-21.834.203-3.393.522-6.757.985-10.091.811-5.655 2.173-11.193 4.345-16.528 1.391-3.451 2.723-6.931 4.461-10.236 1.014-1.943 1.333-3.973 1.275-6.148a81.81 81.81 0 010-5.335c.087-2.233-.869-4.089-1.825-5.973-.174-.319-.434-.725-.84-.696-.55.029-.521.609-.637.986-1.622 6.089-3.766 12.033-4.954 18.268-1.506 7.8-5.185 14.643-9.24 21.341-1.565 2.61-2.984 5.307-4.49 7.974-.261.464-.319.928-.232 1.45.203 1.189.434 2.349 1.014 3.393 1.477 2.581 1.477 5.335 1.014 8.148-.174 1.102-.116 2.175-.029 3.306.116 1.913-.029 3.798-1.854 4.987-.869.58-.985 1.16-.348 1.972.145.203.261.435.319.696.145.406.318.841-.087 1.16-.435.319-.84.029-1.159-.232-1.825-1.566-3.65-3.132-5.04-5.133-.811-1.189-1.709-2.32-2.607-3.421-1.014-1.218-1.42-2.552-1.014-4.118 1.043-4.234 2.144-8.438 3.65-12.556 1.767-4.842 3.186-9.83 4.664-14.759 1.854-6.147 3.621-12.353 5.475-18.5.492-1.682.724-3.422.84-5.132.26-3.973.811-7.887.955-11.86.058-1.856.348-3.712.522-5.567.55-5.452 1.072-10.932 1.999-16.355.869-5.103 3.157-9.163 8.284-11.134 1.362-.522 2.636-1.334 4.201-1.276.405 0 .84-.377 1.216-.61.551-.318 1.13-.405 1.767-.521 1.941-.377 3.737-1.334 4.838-2.958.608-.87.087-2.204-.058-3.334-.435-3.364-1.043-6.699-1.159-10.062-.116-3.19-.492-6.235-2.317-8.931-.493-.754-.58-1.48-.29-2.407.435-1.305-.376-2.552-.55-3.828-.869-6.176-.435-12.207 5.851-16.238 1.97-1.247 4.172-1.856 6.489-1.943.956-.203 1.883-.174 2.81-.174zm10.341 32.564c-.347.522-.608 1.13-1.072 1.537-2.288 2-2.578 4.35-1.477 7.046.058.116.029.26.058.377.492 1.479.898 3.016 2.086 4.35.463-4.553.376-8.932.405-13.31zM383.791 60.4c1.854-2.783 2.259-5.77 2.694-8.728.029-.174-.058-.435-.203-.58-1.217-1.334-2.375-2.696-3.273-4.61.116 4.784.202 9.25.782 13.918zm-29.344 107.462c-.58-1.42-.985-2.899-.782-4.494.029-.348-.087-.754-.232-1.102-.145-.348-.406-.667-.869-.638-.435.029-.493.435-.551.754-.347 1.769-.695 3.567-1.042 5.335-.058.232 0 .696.231.551 1.043-.667 2.202.348 3.245-.406zm80.79.058c.898.348 1.043-.029.927-.667-.261-1.536-.521-3.073-.84-4.581-.087-.435-.087-1.189-.811-1.073-.637.116-.985.725-.898 1.334.232 1.421-.116 2.755-.493 4.118-.086.289-.405.695.029.898.377.174.783.58 1.275.261.319-.203.55-.406.811-.29z" fill="#DAD8D8"/></svg>