<svg viewBox="0 0 45 45" xmlns="http://www.w3.org/2000/svg" xmlns:xlink="http://www.w3.org/1999/xlink"><style>:root&gt;svg{display:none}:root&gt;svg:target{display:block}</style><svg viewBox="0 0 41 45" id="arrow" xmlns="http://www.w3.org/2000/svg"><g clip-path="url(#aclip0_46_165)"><path d="M40.628 15.852c-.836-3.695-3.159-6.578-5.714-8.623-3.624-2.882-7.805-4.44-11.987-5.44C19.211.908 15.262-.743 11.661.373c-1.672.511-2.927 2.301-4.112 4.09-1.765 1.489-3.321 3.395-4.53 5.603-3.205 5.88-3.925 13.83-1.834 20.454.905 2.86 2.3 5.486 4.134 7.531 1.65 1.837 3.601 3.138 5.622 4.207 5.877 3.115 12.846 4.068 18.49.326 3.253-2.162 5.831-5.695 7.852-9.6 1.835-3.58 3.276-7.577 3.624-11.831.14-1.767.093-3.58-.302-5.276l.023-.024z"/><path d="M29.153 22.337a1510.47 1510.47 0 00-6.295-6.043 213.664 213.664 0 00-6.412-5.834c-.255.07-.534.209-.836.441a6.63 6.63 0 00-.883.767c-.278.303-.557.605-.79.953-.232.326 2.23 1.837 3.346 2.952a220.623 220.623 0 013.298 3.255c1.069 1.069 2.114 2.091 3.113 3.09.279.28.558.512.813.791-1.37 1.441-2.764 2.86-4.112 4.3a213.777 213.777 0 00-5.83 6.416c.07.255.209.534.441.836.21.302.465.581.767.884.302.279.604.557.952.79.325.232 1.835-2.232 2.95-3.347 1.092-1.14 2.184-2.232 3.252-3.3 1.07-1.07 2.091-2.116 3.09-3.116a37.953 37.953 0 002.555-2.858v-.047c.21-.279.418-.558.604-.837l-.023-.093z"/></g><defs><clipPath id="aclip0_46_165"><path d="M0 0h41v45H0z"/></clipPath></defs></svg><svg viewBox="0 0 41 45" id="arrow-bg" xmlns="http://www.w3.org/2000/svg"><path d="M.372 29.148c.836 3.695 3.159 6.578 5.714 8.623 3.624 2.882 7.805 4.44 11.987 5.44 3.716.882 7.665 2.533 11.266 1.417 1.673-.511 2.927-2.301 4.112-4.09 1.765-1.488 3.321-3.394 4.53-5.603 3.205-5.88 3.925-13.83 1.834-20.454-.905-2.86-2.3-5.486-4.134-7.531-1.65-1.836-3.6-3.138-5.622-4.207-5.877-3.115-12.846-4.068-18.49-.326-3.253 2.162-5.831 5.695-7.852 9.6C1.882 15.597.442 19.594.093 23.848c-.14 1.767-.093 3.58.302 5.276l-.023.024z"/></svg><svg viewBox="0 0 41 45" id="arrow-next" xmlns="http://www.w3.org/2000/svg"><g clip-path="url(#cclip0_46_165)"><path d="M40.628 15.852c-.836-3.695-3.159-6.578-5.714-8.623-3.624-2.882-7.805-4.44-11.987-5.44C19.211.908 15.262-.743 11.661.373c-1.672.511-2.927 2.301-4.112 4.09-1.765 1.489-3.321 3.395-4.53 5.603-3.205 5.88-3.925 13.83-1.834 20.454.905 2.86 2.3 5.486 4.134 7.531 1.65 1.837 3.601 3.138 5.622 4.207 5.877 3.115 12.846 4.068 18.49.326 3.253-2.162 5.831-5.695 7.852-9.6 1.835-3.58 3.276-7.577 3.624-11.831.14-1.767.093-3.58-.302-5.276l.023-.024z"/><path d="M29.153 22.337a1510.47 1510.47 0 00-6.295-6.043 213.664 213.664 0 00-6.412-5.834c-.255.07-.534.209-.836.441a6.63 6.63 0 00-.883.767c-.278.303-.557.605-.79.953-.232.326 2.23 1.837 3.346 2.952a220.623 220.623 0 013.298 3.255c1.069 1.069 2.114 2.091 3.113 3.09.279.28.558.512.813.791-1.37 1.441-2.764 2.86-4.112 4.3a213.777 213.777 0 00-5.83 6.416c.07.255.209.534.441.836.21.302.465.581.767.884.302.279.604.557.952.79.325.232 1.835-2.232 2.95-3.347 1.092-1.14 2.184-2.232 3.252-3.3 1.07-1.07 2.091-2.116 3.09-3.116a37.953 37.953 0 002.555-2.858v-.047c.21-.279.418-.558.604-.837l-.023-.093z"/></g><defs><clipPath id="cclip0_46_165"><path d="M0 0h41v45H0z"/></clipPath></defs></svg><svg viewBox="0 0 41 45" id="arrow-prev" xmlns="http://www.w3.org/2000/svg"><g clip-path="url(#dclip0_46_168)"><path d="M.372 29.148c.836 3.695 3.159 6.578 5.714 8.623 3.624 2.882 7.805 4.44 11.987 5.44 3.716.882 7.665 2.533 11.266 1.417 1.673-.511 2.927-2.301 4.112-4.09 1.765-1.488 3.321-3.394 4.53-5.603 3.205-5.88 3.925-13.83 1.834-20.454-.905-2.86-2.3-5.486-4.134-7.531-1.65-1.836-3.6-3.138-5.622-4.207-5.877-3.115-12.846-4.068-18.49-.326-3.253 2.162-5.831 5.695-7.852 9.6C1.882 15.597.442 19.594.093 23.848c-.14 1.767-.093 3.58.302 5.276l-.023.024z"/><path d="M11.847 22.663a1510.47 1510.47 0 006.295 6.043 213.664 213.664 0 006.412 5.834c.255-.07.534-.209.836-.441.302-.21.58-.465.883-.767.278-.303.557-.605.79-.953.232-.326-2.23-1.837-3.346-2.952a220.623 220.623 0 01-3.298-3.255c-1.069-1.069-2.114-2.091-3.113-3.09-.279-.28-.558-.512-.813-.791 1.37-1.441 2.764-2.86 4.112-4.3a213.777 213.777 0 005.83-6.416 2.445 2.445 0 00-.441-.836 6.502 6.502 0 00-.767-.884c-.302-.279-.604-.557-.952-.79-.325-.232-1.835 2.232-2.95 3.347-1.092 1.14-2.184 2.232-3.252 3.3-1.07 1.07-2.091 2.116-3.09 3.116a37.953 37.953 0 00-2.555 2.858v.047c-.21.279-.418.558-.604.837l.023.093z"/></g><defs><clipPath id="dclip0_46_168"><path transform="rotate(-180 20.5 22.5)" d="M0 0h41v45H0z"/></clipPath></defs></svg><svg viewBox="0 0 45 45" id="facebook" xmlns="http://www.w3.org/2000/svg"><path fill-rule="evenodd" clip-rule="evenodd" d="M0 22.5C0 10.074 10.074 0 22.5 0S45 10.074 45 22.5 34.926 45 22.5 45 0 34.926 0 22.5zm22.5-11.25c6.188 0 11.25 5.063 11.25 11.25a11.35 11.35 0 01-9.703 11.25v-8.016h2.672l.562-3.234h-3.093v-2.11c0-.843.421-1.687 1.828-1.687h1.406v-2.812s-1.266-.282-2.531-.282c-2.532 0-4.22 1.547-4.22 4.36V22.5H17.86v3.234h2.813v7.875c-5.344-.843-9.422-5.484-9.422-11.109 0-6.188 5.063-11.25 11.25-11.25z"/></svg><svg viewBox="0 0 45 45" id="instagram" xmlns="http://www.w3.org/2000/svg"><path d="M22.5 26.438c-2.11 0-3.938-1.688-3.938-3.938 0-2.11 1.688-3.938 3.938-3.938 2.11 0 3.938 1.688 3.938 3.938 0 2.11-1.829 3.938-3.938 3.938z"/><path fill-rule="evenodd" clip-rule="evenodd" d="M27.281 12.938H17.72c-1.125.14-1.688.28-2.11.421-.562.141-.984.422-1.406.844-.334.334-.491.668-.682 1.071-.05.107-.103.218-.162.335a7.98 7.98 0 01-.073.208c-.147.402-.348.95-.348 1.902v9.562c.14 1.125.28 1.688.421 2.11.141.562.422.984.844 1.406.334.334.668.491 1.071.682.107.05.218.103.335.162.066.021.134.047.208.073.402.148.95.349 1.902.349h9.562c1.125-.141 1.688-.282 2.11-.422.562-.141.984-.422 1.406-.844.334-.334.491-.668.682-1.071.05-.107.103-.218.162-.335a7.98 7.98 0 01.073-.208c.148-.402.349-.95.349-1.902V17.72c-.141-1.125-.282-1.688-.422-2.11-.141-.562-.422-.984-.844-1.406-.334-.334-.668-.491-1.071-.682-.107-.05-.218-.103-.335-.162a7.98 7.98 0 01-.208-.073c-.402-.147-.95-.348-1.902-.348zM22.5 16.453a6.002 6.002 0 00-6.047 6.047 6.002 6.002 0 006.047 6.047 6.002 6.002 0 006.047-6.047 6.002 6.002 0 00-6.047-6.047zm7.594-.14a1.406 1.406 0 11-2.813 0 1.406 1.406 0 012.813 0z"/><path fill-rule="evenodd" clip-rule="evenodd" d="M0 22.5C0 10.074 10.074 0 22.5 0S45 10.074 45 22.5 34.926 45 22.5 45 0 34.926 0 22.5zm17.719-11.672h9.562c1.266.14 2.11.281 2.813.563.843.421 1.406.703 2.11 1.406a6.141 6.141 0 011.405 2.11c.282.702.563 1.546.563 2.812v9.562c-.14 1.266-.281 2.11-.563 2.813-.422.843-.703 1.406-1.406 2.11a6.141 6.141 0 01-2.11 1.405c-.702.282-1.546.563-2.812.563H17.72c-1.266-.14-2.11-.281-2.813-.563-.844-.422-1.406-.703-2.11-1.406a6.14 6.14 0 01-1.405-2.11c-.282-.702-.563-1.546-.563-2.812V17.72c.14-1.266.281-2.11.563-2.813.421-.844.703-1.406 1.406-2.11a6.14 6.14 0 012.11-1.405c.702-.282 1.546-.563 2.812-.563z"/></svg><svg viewBox="0 0 17 10" id="location__arrow" xmlns="http://www.w3.org/2000/svg"><path d="M.293 1.293a1 1 0 011.414 0L8 7.586l6.293-6.293a1 1 0 111.414 1.414l-7 7a1 1 0 01-1.414 0l-7-7a1 1 0 010-1.414z"/></svg><svg viewBox="0 0 45 45" id="telegram" xmlns="http://www.w3.org/2000/svg"><path fill-rule="evenodd" clip-rule="evenodd" d="M22.5 45C10.074 45 0 34.926 0 22.5S10.074 0 22.5 0 45 10.074 45 22.5 34.926 45 22.5 45zm.973-28.115c-2.015.838-6.043 2.573-12.082 5.205-.981.39-1.495.771-1.542 1.144-.079.631.71.88 1.786 1.217.146.046.298.094.453.145 1.058.343 2.48.746 3.22.762.672.014 1.42-.263 2.247-.83 5.644-3.81 8.557-5.735 8.74-5.776.129-.03.307-.067.428.041.122.108.11.312.097.366-.078.334-3.178 3.215-4.782 4.706-.5.465-.854.795-.927.87-.162.17-.328.329-.487.482-.983.947-1.72 1.658.04 2.818.847.558 1.524 1.019 2.2 1.479.737.502 1.473 1.003 2.424 1.627.243.159.475.324.7.485.859.612 1.63 1.162 2.583 1.074.553-.051 1.125-.572 1.415-2.124.687-3.67 2.036-11.62 2.348-14.896a3.65 3.65 0 00-.035-.815c-.027-.162-.085-.391-.295-.561-.248-.202-.631-.244-.803-.241-.779.013-1.974.43-7.728 2.822z"/></svg><svg viewBox="0 0 45 45" id="viber" xmlns="http://www.w3.org/2000/svg"><g clip-path="url(#iclip0_59_197)"><path d="M22.392 10.967c-10.638 0-11.894 4.136-11.894 10.86 0 5.761 1.034 7.018 2.66 8.716.517.518 2.363 1.404 2.806 1.404v5.098c0 .295.296.517.592.221l3.916-4.654 1.92.074c10.638 0 11.894-4.137 11.894-10.86s-1.256-10.86-11.894-10.86zm6.28 17.73c-.74.886-1.43 1.255-2.07 1.107-2.61-.591-5.121-2.069-7.535-4.432-2.413-2.364-3.916-4.925-4.506-7.683 0-.985.615-1.822 1.847-2.512.64-.443 1.182-.32 1.625.37l1.847 2.585c.296.592.123 1.133-.517 1.626-2.881 1.108 3.768 8.274 5.393 5.171.493-.64 1.084-.739 1.773-.295l2.66 1.994c.393.493.221 1.182-.518 2.068zM22.84 16.802h-.005a.37.37 0 010-.739h.005a5.103 5.103 0 015.092 5.336.37.37 0 01-.369.353h-.017a.37.37 0 01-.351-.387 4.364 4.364 0 00-4.354-4.564zm.525 1.994a.37.37 0 01-.026-.739 2.588 2.588 0 012.672 2.672.37.37 0 01-.369.357h-.012a.369.369 0 01-.357-.382 1.85 1.85 0 00-1.909-1.909zm6.487 3.426a.37.37 0 01-.368.343l-.027-.001a.37.37 0 01-.342-.396 6.756 6.756 0 00-2.086-5.41 6.753 6.753 0 00-4.85-1.877.37.37 0 01-.018-.739 7.483 7.483 0 015.378 2.083 7.485 7.485 0 012.33 5.276c.007.239 0 .481-.017.72z"/><path d="M22.5 0C10.074 0 0 10.074 0 22.5S10.074 45 22.5 45 45 34.926 45 22.5 34.927 0 22.5 0zm-.109 34.902c-.739 0-1.33 0-2.364-.148l-2.807 3.177c-.518.591-2.07.812-2.07-.96v-3.103c-.443 0-1.477-.444-2.88-1.33-1.404-.96-3.989-3.25-3.989-10.711 0-9.309 4.063-13.077 14.11-13.077 10.048 0 14.11 3.768 14.11 13.076 0 9.309-4.062 13.076-14.11 13.076z"/></g><defs><clipPath id="iclip0_59_197"><path d="M0 0h45v45H0z"/></clipPath></defs></svg><svg viewBox="0 0 45 45" id="whatsapp" xmlns="http://www.w3.org/2000/svg"><path fill-rule="evenodd" clip-rule="evenodd" d="M17.719 30.516c1.406.843 3.093 1.265 4.781 1.265 5.203 0 9.281-4.218 9.281-9.14 0-2.532-.843-4.782-2.672-6.61-1.828-1.687-4.078-2.672-6.609-2.672-5.063 0-9.281 4.22-9.281 9.282 0 1.687.422 3.375 1.406 4.922l.281.421-.984 3.375 3.515-.984.282.14zm7.875-6.61c.281 0 1.687.703 1.968.844.044.022.088.04.131.059.235.099.454.191.573.785.14 0 .14.562-.141 1.265-.14.563-1.266 1.266-1.828 1.266-.095 0-.187.008-.284.017-.478.042-1.106.098-3.091-.72-2.465-.986-4.173-3.375-4.653-4.046a2.403 2.403 0 00-.128-.173 3.256 3.256 0 00-.137-.225c-.31-.491-.988-1.561-.988-2.728 0-1.406.703-2.11.984-2.39.281-.282.563-.282.703-.282h.563c.14 0 .422 0 .562.422.281.563.844 1.969.844 2.11 0 .046.015.093.031.14.031.094.063.188-.031.281a.736.736 0 00-.14.211c-.036.07-.071.14-.141.211l-.422.422c-.14.14-.282.281-.14.563.14.28.702 1.265 1.546 1.968.95.831 1.698 1.16 2.078 1.328.07.031.128.056.172.078.281 0 .422 0 .563-.14.07-.14.246-.352.421-.563.176-.21.352-.422.422-.562.14-.281.282-.281.563-.14z"/><path fill-rule="evenodd" clip-rule="evenodd" d="M0 22.5C0 10.074 10.074 0 22.5 0S45 10.074 45 22.5 34.926 45 22.5 45 0 34.926 0 22.5zm22.5-11.25c2.953 0 5.766 1.125 7.875 3.234 2.11 2.11 3.375 4.922 3.375 7.875 0 6.188-5.063 11.25-11.25 11.25-1.828 0-3.656-.562-5.344-1.406L11.25 33.75l1.547-5.625c-.985-1.688-1.547-3.656-1.547-5.625 0-6.188 5.063-11.25 11.25-11.25z"/></svg></svg>