<svg width="299" height="64" fill="none" xmlns="http://www.w3.org/2000/svg"><path d="M157.087 0c-47.835 0-95.08 1.718-142.914 4.295-2.953 3.866-5.315 9.45-7.086 15.463-1.772 6.443-3.544 12.886-4.725 20.188C.591 47.248 0 54.55 0 61.852s47.835-3.436 73.228-3.436c25.985 0 50.788.43 75.591.86 24.803 0 48.425.858 71.457 1.288 23.031 0 44.291 0 63.189-2.148 2.952 0 5.905-2.577 7.677-6.443 2.362-3.866 3.543-8.59 5.315-14.174 1.181-5.584 2.362-11.598 2.362-18.47V.429H155.906L157.087 0z" fill="#B8FF1F"/></svg>