<svg width="297" height="22" fill="none" xmlns="http://www.w3.org/2000/svg"><path d="M296.233 5.981c-.768-2.036-1.919-4.072-3.07-5.981-48.349.255-96.314.636-144.279 1.018A8898.63 8898.63 0 006.14 3.308C3.837 4.582 2.302 6.237 1.535 8.273 0 10.18 0 12.217 0 14.508c0 2.29.767 4.454 1.919 6.744 1.15 2.29 47.581-1.4 73.674-1.527 26.093-.127 51.419-.255 76.36-.255h72.14c23.023 0 44.128-.381 63.314-1.145 3.07 0 5.372-.763 6.907-2.036 1.535-1.273 2.302-2.672 2.686-4.454 0-1.782 0-3.69-.767-5.727v-.127z" fill="#B8FF1F"/></svg>